<?xml version="1.0" encoding="UTF-8" standalone="no"?>
<svg
   xmlns:dc="http://purl.org/dc/elements/1.1/"
   xmlns:cc="http://creativecommons.org/ns#"
   xmlns:rdf="http://www.w3.org/1999/02/22-rdf-syntax-ns#"
   xmlns:svg="http://www.w3.org/2000/svg"
   xmlns="http://www.w3.org/2000/svg"
   xmlns:xlink="http://www.w3.org/1999/xlink"
   xmlns:sodipodi="http://sodipodi.sourceforge.net/DTD/sodipodi-0.dtd"
   xmlns:inkscape="http://www.inkscape.org/namespaces/inkscape"
   width="1980px"
   height="2975px"
   version="1.1"
   xml:space="preserve"
   style="fill-rule:evenodd;clip-rule:evenodd;stroke-linecap:round;stroke-linejoin:round;stroke-miterlimit:1.41421;"
   id="svg3460"
   inkscape:version="0.91 r13725"
   sodipodi:docname="board.svg"><metadata
     id="metadata3544"><rdf:RDF><cc:Work
         rdf:about=""><dc:format>image/svg+xml</dc:format><dc:type
           rdf:resource="http://purl.org/dc/dcmitype/StillImage" /><dc:title></dc:title></cc:Work></rdf:RDF></metadata><defs
     id="defs3542" /><sodipodi:namedview
     pagecolor="#ffffff"
     bordercolor="#666666"
     borderopacity="1"
     objecttolerance="10"
     gridtolerance="10"
     guidetolerance="10"
     inkscape:pageopacity="0"
     inkscape:pageshadow="2"
     inkscape:window-width="1920"
     inkscape:window-height="1012"
     id="namedview3540"
     showgrid="false"
     inkscape:zoom="1.5496928"
     inkscape:cx="1484.8128"
     inkscape:cy="2761.6092"
     inkscape:window-x="1920"
     inkscape:window-y="31"
     inkscape:window-maximized="1"
     inkscape:current-layer="layer1" /><g
     inkscape:groupmode="layer"
     id="layer2"
     inkscape:label="board"
     sodipodi:insensitive="true"><image
       sodipodi:absref="/home/leandrost/projects/gotzin/got-board-react-app/src/images/board.jpg"
       xlink:href="src/images/board.jpg"
       style="clip-rule:evenodd;fill-rule:evenodd;stroke-linecap:round;stroke-linejoin:round;stroke-miterlimit:1.41420996"
       y="0"
       x="0"
       id="image3608-3"
       preserveAspectRatio="none"
       height="2975"
       width="1980" /></g><g
     inkscape:groupmode="layer"
     id="layer1"
     inkscape:label="map"><g
       transform="translate(2.4729399,-0.80499977)"
       style="clip-rule:evenodd;fill-rule:evenodd;stroke-linecap:round;stroke-linejoin:round;stroke-miterlimit:1.41420996"
       id="g3462"><g
         id="g3464"><g
           id="port-dragonstone"><path
             inkscape:connector-curvature="0"
             d="m 1391.28,1882.7 c 32.31,0 58.51,26.2 58.51,58.51 0,32.31 -26.2,58.51 -58.51,58.51 -32.31,0 -58.51,-26.2 -58.51,-58.51 0,-32.31 26.2,-58.51 58.51,-58.51 z"
             style="fill:none;stroke:#000000;stroke-width:1.33000004px"
             id="path3467" /></g><g
           id="port-white-harbor"><path
             inkscape:connector-curvature="0"
             d="m 913.796,1028.15 c 32.312,0 58.507,26.2 58.507,58.51 0,32.31 -26.195,58.51 -58.507,58.51 -32.312,0 -58.506,-26.2 -58.506,-58.51 0,-32.31 26.194,-58.51 58.506,-58.51 z"
             style="fill:none;stroke:#000000;stroke-width:1.33000004px"
             id="path3470" /></g><g
           id="port-sunspear"><path
             inkscape:connector-curvature="0"
             d="m 1337.11,2613.88 c 32.31,0 58.5,26.2 58.5,58.51 0,32.31 -26.19,58.51 -58.5,58.51 -32.32,0 -58.51,-26.2 -58.51,-58.51 0,-32.31 26.19,-58.51 58.51,-58.51 z"
             style="fill:none;stroke:#000000;stroke-width:1.33000004px"
             id="path3473" /></g><g
           id="port-storms-end"><path
             inkscape:connector-curvature="0"
             d="m 1173.33,2231.5 c 32.31,0 58.5,26.19 58.5,58.51 0,32.31 -26.19,58.5 -58.5,58.5 -32.31,0 -58.51,-26.19 -58.51,-58.5 0,-32.32 26.2,-58.51 58.51,-58.51 z"
             style="fill:none;stroke:#000000;stroke-width:1.33000004px"
             id="path3476" /></g><g
           id="port-lannisport"><path
             inkscape:connector-curvature="0"
             d="m 287.946,1696.83 c 32.312,0 58.506,26.2 58.506,58.51 0,32.31 -26.194,58.51 -58.506,58.51 -32.312,0 -58.507,-26.2 -58.507,-58.51 0,-32.31 26.195,-58.51 58.507,-58.51 z"
             style="fill:none;stroke:#000000;stroke-width:1.33000004px"
             id="path3479" /></g><g
           id="port-oldtown"><path
             inkscape:connector-curvature="0"
             d="m 198.074,2369.99 c 32.312,0 58.506,26.2 58.506,58.51 0,32.31 -26.194,58.51 -58.506,58.51 -32.313,0 -58.507,-26.2 -58.507,-58.51 0,-32.31 26.194,-58.51 58.507,-58.51 z"
             style="fill:none;stroke:#000000;stroke-width:1.33000004px"
             id="path3482" /></g><g
           id="port-pyke"><path
             inkscape:connector-curvature="0"
             d="m 355.553,1324.89 c 32.312,0 58.506,26.2 58.506,58.51 0,32.31 -26.194,58.51 -58.506,58.51 -32.313,0 -58.507,-26.2 -58.507,-58.51 0,-32.31 26.194,-58.51 58.507,-58.51 z"
             style="fill:none;stroke:#000000;stroke-width:1.33000004px"
             id="path3485" /></g><path
           inkscape:connector-curvature="0"
           id="sunspear"
           d="m 959.105,2584.41 c -0.297,27.01 -2.608,50.84 -19.011,52.45 21.068,19.75 49.108,31.68 90.936,28.14 13.24,-2.84 27.9,-1.57 45.67,8.75 25.61,8.38 55.11,6.75 87.26,-1.74 12.7,14.3 32.49,25.52 67.91,29.99 7.36,-7.84 14.8,-9.7 22.32,-5.57 -5.35,-15.19 2.8,-30.76 27.27,-46.78 8.52,7.57 17.45,0.37 26.79,-21.6 2.57,-10.98 8.71,-21.43 18.4,-31.34 -13.55,9.65 -23.56,11.58 -28.4,2.22 -16.64,-11.3 -27.18,-24.88 -31.62,-40.75 l -21.97,9.02 c -5.08,15.21 -16.67,22.09 -31.23,25.17 -11.76,16.81 -27.16,23.72 -46.19,20.74 -8.04,9.18 -15.95,12.89 -23.59,4.57 -22.95,-0.3 -41.6,-9.31 -58.88,-21.11 -25.23,20.79 -49.38,21.34 -71.96,-7.66 -17.942,3.9 -35.842,2.4 -53.705,-4.5 z"
           style="fill:none;stroke:#000000;stroke-width:1px" /><path
           inkscape:connector-curvature="0"
           id="yronwood"
           d="m 766.17,2559.66 c -18.501,-7.34 -37.366,-9.7 -56.668,-6.05 -14.672,12.54 -27.95,12.61 -40.596,7.01 l 8.885,12.2 c -12.107,6.07 -22.388,16.75 -30.842,32.03 l 4.334,20.75 c -18.202,78.48 47.377,29.34 77.973,48.1 6.732,15.86 17.786,20.78 35.154,9.71 l 13.219,-10.77 c 9.545,11.86 25.988,10.13 47.15,-0.89 6.879,0.66 18.19,6.14 33.934,16.42 27.48,-14.29 61.943,-45.64 95.152,-57.09 5.631,-12.86 1.772,-33.72 4.463,-46.47 -6.573,-3.8 -11.06,-8.67 -13.459,-14.59 -9.241,9.71 -19.436,13.84 -31.73,5.69 -12.086,1.27 -21.305,-0.25 -27.659,-4.58 -21.918,6.38 -36.415,1.95 -47.539,-7.4 -9.03,6.97 -18.632,9.84 -29.49,3.68 -6.223,2.42 -14.541,1.93 -24.955,-1.48 -11.701,9.45 -17.476,7.36 -17.326,-6.27 z"
           style="fill:none;stroke:#000000;stroke-width:1px" /><path
           inkscape:connector-curvature="0"
           id="starfall"
           d="m 525.957,2635.94 c -8.386,29.21 -13.843,35.07 -18.883,37.6 -3.485,14.78 -8.791,27.81 -15.92,39.12 12.192,9.11 13.568,20.92 4.127,35.45 -3.569,15.1 -3.059,29.46 0.24,43.32 l 36.043,23.82 c 12.677,-16.06 24.997,-14.2 37.155,-4.2 6.736,-4.68 13.861,-8.08 23.715,-2.48 28.646,5.19 58.395,-7.48 89.248,-38.03 6.597,10.7 16.912,16.37 28.918,19.76 l 10.886,8.01 c 0.225,-7.79 19.038,-10.08 46.299,-9.88 5.777,3.43 14.583,3.01 26.418,-1.26 l 2.721,-6.81 -6.514,-12.61 c -40.738,-25.22 -20.461,-41.97 -22.365,-66.28 -1.001,-12.77 -0.772,-15.64 -4.443,-17.29 -12.659,9.24 -23.995,6.02 -34.008,-9.64 -24.964,-19.28 -100.127,28.47 -78.291,-46.84 -40.664,-4.92 -82.297,-3.2 -125.346,8.24 z"
           style="fill:none;stroke:#000000;stroke-width:1px" /><path
           inkscape:connector-curvature="0"
           id="princes-pass"
           d="m 505.15,2454.18 c -8.729,16.31 -10.688,33.52 -8.015,51.36 17.681,12.2 19.637,27.39 55.185,34.36 -2.15,18.44 -0.703,28.82 11.459,43.04 -1.138,15.3 -9.393,21.92 -20.883,24.58 -5.463,10.5 -10.69,16.54 -15.679,18.13 l -1.983,10.99 c 42.108,-9.7 84.319,-14.54 126.758,-8.66 l -5.074,-23.49 c 6.804,-16.31 17.872,-25.51 30.879,-31.49 l -8.276,-10.87 c 4.184,-5.77 8.985,-20.54 14.403,-44.3 5.306,-10.29 10.737,-18.93 16.291,-25.94 26.956,-20.28 -5.547,-44.81 3.832,-90.99 -19.283,-27.26 -56.867,-23.59 -109.613,5.69 -22.648,24.54 -51.461,41.57 -89.284,47.59 z"
           style="fill:none;stroke:#000000;stroke-width:1px" /><path
           inkscape:connector-curvature="0"
           id="three-towers"
           d="m 307.578,2569.53 c 5.195,24.94 -8.236,50.63 -48.891,77.4 l 38.487,58.35 c 7.82,1.19 16.08,3.5 25.306,8.25 0.205,10.72 8.409,14.03 7.645,33.83 l 12.699,-2.86 c 10.764,-11.82 21.81,-12.27 33.139,-1.37 l 7.055,-6.79 c 6.289,-15.15 19.32,-15.66 35.414,-9.52 14.106,-16.68 28.668,-32.5 51.113,-33.56 l 7.164,-12.37 22.623,-10.75 -0.871,-4.85 c 9.83,-13 15.661,-28.2 18.754,-44.91 7.349,-3.37 12.872,-10.5 16.568,-21.39 13.917,-2.64 19.761,-7 17.531,-15.07 -9.268,-8.08 -12.354,-21.3 -9.255,-39.65 l 5.443,-6.59 c -39.176,-10.07 -29.513,-18.48 -49.17,-30.12 -3.285,-15.81 -2.397,-33.15 4.592,-52.72 -30.646,-0.11 -58.688,2.29 -81.584,9.64 -9.46,18.11 -26.223,29.95 -47.985,37.51 2.649,34.66 -16,58.8 -65.777,67.54 z"
           style="fill:none;stroke:#000000;stroke-width:1px" /><path
           inkscape:connector-curvature="0"
           id="storms-end"
           d="m 1159.38,2121.5 c -15.07,-1.47 -25.9,8.36 -32.49,29.49 -20.19,17.54 -41.33,20.95 -62.59,22.35 -18.21,9.47 -30.77,20.09 -40.77,31.23 -6.86,13.78 -17.77,24.52 -32.727,32.21 l -28.047,45.19 c 22.008,20.67 29.37,50.38 15.328,93.32 20.12,-7 51.026,5.24 39.616,26.29 2.94,7.69 7.38,11.51 13.33,11.48 5.06,-2.39 9.61,0.48 17.4,3.61 15.16,-12.66 33.89,-10.69 55.08,1.29 14.85,-15.85 25.79,-14.94 32.84,2.72 l 13.12,3.34 c 19.16,-1.22 29.06,2.95 18.63,19.01 l 14.83,2.96 c 7.83,-4.97 19.36,-7.29 32.58,-8.41 l 3.7,-13.21 c -12.5,-17.04 -12.05,-28.35 1.35,-33.96 7.57,-25.48 18.08,-40.56 35.06,-32.73 l 14.83,-6.79 c 1.92,-14.72 20.2,-26.16 42.66,-39.71 -14.06,-0.83 -20.5,-6.19 -23.48,-13.61 -10.79,17.56 -19.55,21.96 -26.28,13.2 -8.57,14.85 -17.63,19.52 -27.79,1.83 l -108.37,-25.91 c -40.67,9.17 -50.09,0.85 -28.25,-24.96 -24.08,-7.49 -24.91,-15.26 -2.48,-23.31 8.65,-11.28 18.68,-13.91 30.1,-7.87 l 9.88,-2.37 c -0.91,-7.14 3.04,-11.63 11.83,-13.47 6.28,19.11 12.96,19.51 20.03,1.22 l 8.26,-14.44 -1.87,-23.44 11.5,-6.55 c -6.59,-4.38 -8.53,-10.89 -5.82,-19.54 -12.33,-8.75 -19.33,-18.9 -20.99,-30.46 z"
           style="fill:none;stroke:#000000;stroke-width:1px" /><path
           inkscape:connector-curvature="0"
           id="the-boneway"
           d="m 705.24,2400.35 c -7.146,15.21 -2.05,37.24 4.795,60.25 4.133,15.88 0.831,26.95 -9.906,33.21 l -16.9,25.05 c -1.898,17.12 -6.303,30.57 -11.848,42.34 7.431,-8.76 9.972,13.55 37.654,-7.54 18.281,-2.75 37.403,0.38 56.906,6.19 9.416,-14.08 18.664,-16.55 41.856,-11.87 3.775,-12.2 12.571,-20.18 20.125,-28.16 -5.426,-16.32 2.771,-24.12 17.16,-28.04 -9.6,-8.37 -5.607,-14.88 11.979,-19.54 3.064,-5.3 6.975,-10.01 11.996,-11.88 l 3.091,-21.63 -9.035,-17.88 34.082,-16.07 20.752,12.35 c 14.057,-11.93 26.934,-17.37 38.397,-0.22 l 14.199,-7.83 c -1.51,-10.88 1.94,-18.42 7.644,-24.44 -2.047,-10.22 1.423,-26.32 8.667,-46.45 0.311,-16.38 -8.65,-35.49 -23.958,-56.44 -41.979,-7.81 -73.085,-8.3 -80.269,7.29 -34.423,19.53 -65.45,41.29 -94.932,64.07 -32.25,1.54 -51.713,9.11 -58.388,22.7 -13.379,-7.91 -21.401,0.27 -24.067,24.54 z"
           style="fill:none;stroke:#000000;stroke-width:1px" /><path
           inkscape:connector-curvature="0"
           id="dornish-marches"
           d="m 430.664,2378.02 c 9.367,23.59 -10.125,45.44 -10.758,87.16 8.737,-7.28 44.57,-9.48 86.028,-10.63 41.586,-9.42 71.176,-24.89 86.287,-47.65 52.861,-28.4 92.05,-33.9 111.258,-5.92 4.677,-24.12 12.908,-32.14 24.695,-24.07 8.816,-16.02 29.33,-22.91 57.849,-23.56 l 21.866,-15.22 c -17.97,1.75 -32.864,-1.39 -40.989,-15.31 -12.112,-19.54 -32.081,-27.44 -57.425,-27.38 -33.966,-23.64 -69.859,-35.7 -108.569,-30.84 -9.099,21.82 -31.202,29.82 -62.201,28.36 -17.262,4.86 -30.771,13.68 -38.525,29.63 -21.933,2.86 -38.459,14.17 -49.578,33.94 -10.06,3.93 -15.947,11.82 -19.938,21.49 z"
           style="fill:none;stroke:#000000;stroke-width:1px" /><path
           inkscape:connector-curvature="0"
           id="oldtown"
           d="m 308.125,2352.86 -11.367,8.04 c -0.652,6.52 -4.688,11.79 -12.108,15.79 -8.478,14.27 -2.8,12.03 -13.07,29.4 4.512,11.99 1.391,21.98 -9.365,29.99 -13.804,9.15 -24.177,9.37 -32.99,5.55 l -36.174,47.52 c 8.218,12.74 2.32,22.37 -9.996,30.58 12.103,26.12 34.382,42.12 18.771,73.22 l 28.51,9.76 c 32.652,-25.09 62.048,-38.42 75.906,-33.77 44.382,-3.06 64.61,-24.71 66.127,-66.69 21.231,-7.28 41.057,-18.44 47.408,-36.54 -1.761,-49.29 22.93,-51.34 9.868,-87.66 -7.124,-3.16 -14.615,-2.17 -22.475,2.97 -8.893,-3.72 -18.044,-4.55 -27.455,-2.48 -0.187,-6.48 -4.058,-12.47 -16.031,-17.42 l -13.959,7.18 c -21.383,5.8 -35.125,3.53 -41.227,-6.8 l -0.373,-8.64 z"
           style="fill:none;stroke:#000000;stroke-width:1px" /><path
           inkscape:connector-curvature="0"
           id="kingswood"
           d="m 916.637,2115.58 c -0.959,48.93 -21.125,77.09 -60.497,84.46 l -9.362,46.97 37.414,41.54 c 13.872,-17.81 44.54,-14.51 77.607,-8.2 38.611,-51.39 76.811,-103.35 141.811,-118.31 13.48,2.14 25.58,-10.4 36.31,-37.6 20.77,-9.48 36.98,-10.17 48.64,-2.1 l 28.97,-2.96 c -3.02,-11.32 2.52,-17.15 16.61,-17.51 -13.32,-5.75 -16.86,-12.69 1.12,-22.29 -10.95,-16.49 -7.24,-25.55 11.14,-27.16 l -9.54,-6.36 c -14.32,11.48 -24.98,8.75 -31.95,-8.2 -2.28,14.17 -12.24,18.82 -29.88,13.93 6.78,-13.28 2.76,-29.12 -6.16,-46.13 l 28.12,-2.32 c -5.09,-28.31 26.63,-58.38 40.87,-96.87 -12.51,-15.42 -21.16,-29.04 -29.88,-42.68 l 0.65,23.04 c 11.35,14.02 15.3,28.13 2.97,42.46 -11,19.65 -24.99,32.19 -41.96,37.61 -2.9,12.15 -10.43,18.53 -22.59,19.14 -16.85,17.4 -27.14,22.73 -34.45,22.57 -2.8,16.05 -10.75,23.12 -22.99,22.75 -32.34,34.85 -72.17,64.95 -124.665,87 -19.311,4.54 -34.7,2.4 -48.308,-2.78 z"
           style="fill:none;stroke:#000000;stroke-width:1px" /><path
           inkscape:connector-curvature="0"
           id="kings-landing"
           d="m 1063.93,1872.91 -27.12,6.62 -63.425,-1.08 c -43.028,-17.31 -78.247,-5.66 -105.656,34.94 -1.77,61.56 -16.354,105.58 1.085,110.05 -5.928,45.88 -1.409,73.58 18.381,74.71 12.867,4.1 22.135,10.42 27.804,18.97 l 47.938,5.31 c 41.313,-26.94 83.463,-56.48 127.423,-91.75 l 21.28,-25.59 -7.5,-27.79 c -25.8,11.48 -51.2,18.48 -76.01,18.94 -26.55,16.48 -46.682,21.63 -52.714,1.86 -18.84,13.21 -20.896,7.06 -6.167,-18.46 -21.476,-18.71 -14.854,-30.04 19.868,-33.99 11.393,-12.71 26.153,-19.26 44.263,-19.64 l -4.79,16.43 15,-11.42 c -2.41,-22.94 8.74,-34 26.05,-39.68 -6.08,-5.73 -7.98,-11.88 -5.71,-18.43 z"
           style="fill:none;stroke:#000000;stroke-width:1px" /><path
           inkscape:connector-curvature="0"
           id="blackwater"
           d="m 485.718,2114.25 c -22.503,-15.04 -26.144,-32.82 -16.88,-52.45 -12.38,-27.82 -11.309,-46.17 3.213,-55.04 l -8.182,-48.16 c 8.57,-9.66 19.83,-11.18 33.779,-4.57 16.337,0.75 32.316,-11.86 47.937,-37.83 13.438,11.54 24.942,5.25 35.568,-9.14 14.565,5.59 27.695,9.38 40.174,12.33 19.778,-8.93 33.181,-24.29 40.209,-46.09 10.313,-12.8 27.773,-23.68 60.956,-30.31 l 7.307,-19.36 c 31.335,-4.7 62.361,-1.28 93.078,10.28 18.071,8.28 23.996,18.39 17.776,30.31 2.583,20.85 11.635,38.89 27.156,54.12 l -4.815,34.45 c 15.253,31.19 -16.321,39.02 3.638,72.34 -26.658,-16.29 -47.663,-7.57 -61.432,21.71 -43.463,12.51 -60.643,21.16 -55.854,49.92 -31.788,-7.33 -47.31,4.43 -61.394,20.07 l -27.63,-3.16 c -24.096,12.13 -49.337,22.44 -77.093,17.97 -17.275,-9.35 -33.629,-16.97 -49.063,-16.14 -14.125,7.7 -30.274,7.28 -48.448,-1.25 z"
           style="fill:none;stroke:#000000;stroke-width:1px" /><path
           inkscape:connector-curvature="0"
           id="searoad-marches"
           d="m 291.598,1897.87 c 5.829,14.83 0.806,30.73 -15.07,47.71 7.125,13.53 4.993,20.99 -6.396,22.38 l -19.885,84.46 -19.354,11.19 c 6.741,4.54 7.052,10.86 0.932,18.95 4.717,9.51 4.031,16.34 -2.057,20.5 18.023,10.49 23.663,24.75 2.057,47.29 27.479,4.73 56.607,1.93 88.146,-11.88 9.061,-10 19.145,-15.42 31.476,-10.73 12.904,0.53 26.582,9.8 40.612,23.04 25.305,8.65 48.95,20.72 71.459,35.14 -2.625,-22.73 -0.501,-44.27 12.067,-63.22 l 12.102,-6.15 c -20.375,-12.53 -26.927,-30.93 -19.656,-55.23 -8.151,-17.56 -9.895,-34.91 2.455,-51.8 l -5.708,-49.73 6.393,-68.45 -9.781,-33.8 c -25.484,33.45 -35.445,19.99 -58.542,39.26 -10.892,-4.82 -25.611,-2.99 -44.156,5.48 l -36.253,0.46 c -12.382,-7.13 -22.663,-8.75 -30.841,-4.87 z"
           style="fill:none;stroke:#000000;stroke-width:1px" /><path
           inkscape:connector-curvature="0"
           id="stoney-sept"
           d="m 472.536,1850.23 c -18.122,5.4 -10.442,21.42 -1.406,41.52 -7.282,18.43 -9.648,44.21 -6.816,70.05 7.615,-16.18 17.73,-14.73 28.982,-5.25 13.786,1.64 28.28,-16.42 50.138,-38.99 9.033,7.43 24.947,5.36 36.925,-8.91 l 37.203,11.61 c 21.953,-6.43 36.086,-22.88 44.95,-46.38 15.369,-17.59 34.921,-27.11 58.654,-28.56 l 6.128,-20.04 c -18.706,-16.96 -14.129,-40.12 -1.599,-62.53 -40.713,-46.83 -68.855,-68.17 -36.008,-93.41 l -14.138,-18.94 c -12.288,6.87 -24.986,9.24 -37.873,9.56 -10.266,36.42 -10.748,2.57 -24.679,46.34 -43.88,25.01 -74.493,33.52 -85.719,17.88 l -15.299,22.38 c -32.599,43.76 -74.786,18.32 -46,45.83 -7.306,9.67 -3.434,18.13 2.036,26.43 -3.431,13.53 -1.924,23.99 4.521,31.41 z"
           style="fill:none;stroke:#000000;stroke-width:1px" /><path
           inkscape:connector-curvature="0"
           id="lannisport"
           d="m 489.307,1594.36 -21.045,-2.35 c -11.928,12.83 -22.718,16.02 -32.372,9.57 l -15.74,2.72 c -9.848,10.38 -22.809,4.91 -37.185,-7.77 l -29.44,8.7 -5.901,15.74 c 26.258,13.7 33.443,31.58 12.753,55.59 1.4,19.59 -6.541,25.26 -18.727,24.61 l -16.213,64.8 c -6.254,42.03 -20.851,58.83 -43.789,50.39 -9.723,13.99 -19.455,19.91 -29.196,17.76 -8.917,21.39 -21.615,33.69 -42.63,26.01 6.537,16.64 0.219,31.76 -18.953,45.37 l 32.281,-14.88 c 12.054,-15.71 28.548,-16.15 45.964,-13.41 18.866,-13.82 23.753,-3.13 22.286,18.68 11.817,-1.83 21.789,0.9 29.914,8.19 16.015,-3.22 27.992,-2.43 37.206,1.1 14.213,-10.41 28.6,-12.28 43.37,-5.51 11.889,-9.26 23.265,-16.62 33.513,-19.8 l 24.854,-21.86 12.505,-9.79 c -8.102,-1.87 -9.472,-10.9 -4.109,-27.08 -7.75,-16.92 -7.927,-25.87 -0.531,-26.86 -11.606,-12 -19.016,-22.46 2.95,-22.15 11.036,-0.55 20.239,-9.88 40.154,-25.54 9.045,2.08 14.337,-6.51 15.875,-25.75 2.451,-30.66 -26.14,-18.13 -21.922,-33.56 l 1.883,-25.37 c 29.206,-18.01 -6.64,-26.84 -17.755,-67.55 z"
           style="fill:none;stroke:#000000;stroke-width:1px" /><path
           inkscape:connector-curvature="0"
           id="seagard"
           d="m 460.747,1281.01 72.755,-14.86 33.075,2.74 -1.14,9.74 5.461,16.85 6.888,20.53 13.948,6.64 1.599,24.19 15.755,14.12 c 2.108,22.46 10.246,32.5 24.417,30.13 9.304,34.23 26.57,57.33 55.474,64.15 -0.276,8.44 1.166,16.34 14.632,20.51 -1.841,16.23 6.359,23.82 21.43,25.51 l 6.393,17.3 c -13.427,10.62 -31.827,4.75 -51.817,-6.4 -11.206,-10.75 -29.776,-19.85 -53.383,-27.82 -2.321,-37.25 -16.917,-53.67 -43.789,-49.27 -11.965,-10.44 -23.313,-10.82 -34.045,-1.14 -3.271,12.82 -15.453,16.94 -31.687,17.1 l -15.07,11.58 -13.383,-0.88 -9.974,-27.69 c 20.239,-2.71 40.607,-9.28 61.601,-34.49 19.552,-14.17 11.408,-26.93 -9.325,-39.05 -8.454,-18.08 -21.64,-43.67 -45.024,-69.61 -14.372,4.2 -21.917,0.03 -24.791,-9.88 z"
           style="fill:none;stroke:#000000;stroke-width:1px" /><path
           inkscape:connector-curvature="0"
           id="the-findgers"
           d="m 1112.15,1252.59 c 30.66,-6.9 33.78,-20.21 46.2,-16.01 l 9.56,-14.16 c 12.75,-3.77 19.9,-10.72 25.66,-17.8 l -3.76,15.96 c -6.44,0.96 -10.63,3.39 -12.56,7.31 -0.69,11.61 -6.53,17.84 -17.53,18.7 -29.12,8.56 -37.57,19.65 -25.35,33.29 14.62,13.3 26.94,10.1 36.98,-9.59 23.18,-17.21 44.64,-31.93 62.72,-41.74 -12.64,8.07 -19.34,14.87 -12.97,18.86 -19.62,10.5 -36.85,23.6 -45.68,34.58 l 31.69,-1.1 c 9.76,-18.88 16.83,-21.1 28.24,-19.07 l 15.51,-18 c -3.79,14.54 73.68,-44.95 -3.18,11.83 0.54,5.8 -1.51,10.16 -6.16,13.09 -8.08,0.1 -12.64,-0.98 -20.1,3.32 -4.02,14.32 -15.04,20.78 -30.84,21.87 -62.17,6.05 -76.2,19.54 -95.56,77.87 -26.51,36.29 -54.23,49.6 -83.16,39.94 l -25.746,12.09 c -46.404,-22.13 -56.295,4 -96.315,-9.35 -17.319,-5.77 -28.889,-28.08 -34.711,-66.93 21.082,-22.73 12.237,-42.93 -10.21,-61.97 l -0.204,0.02 0.185,-0.14 -0.029,-0.18 0.322,-0.05 c 25.003,10.55 36.11,5.93 26.907,-20.84 l 15.93,-2.06 c 22.853,16.91 33.193,15.08 31.018,-5.48 l 5.235,-11.38 10.468,-4.53 c 12.681,16.85 24.263,15.72 35.094,2.28 16.005,2.54 29.789,-5.3 40.326,-28.29 l 10.93,1.58 c 7.39,6.63 12.87,7.05 14.13,-6.19 l 25.32,-9.34 c -18.13,11.41 -24.37,21.43 -13.23,29.4 0.26,9.18 13.31,6.39 32.18,-1.83 8.07,5.6 15.39,7.96 17.51,-12.31 l 8.83,6.38 c 21.66,-0.35 39.4,-7.91 52.42,-24.17 l -5.94,-7.98 c 6.92,1.39 12.91,0.97 16.86,-3.43 3.54,2.24 11.59,-1.8 21.7,-8.69 6.22,1.02 11.77,-0.95 17.01,-4.28 l -4.87,7.44 -37.48,18.06 c 1.7,13.68 -14.82,23.74 -43.82,31.3 l -14.86,12.35 c -10.57,7.52 -6.05,9.66 5.33,9.37 z"
           style="fill:none;stroke:#000000;stroke-width:1px" /><path
           inkscape:connector-curvature="0"
           id="moat-cailin"
           d="m 619.72,1059.63 58.232,-13.16 4.083,-7.7 c 25.243,-17.6 50.764,-19.6 76.474,-10.93 11.551,-0.63 17.945,-4.91 19.184,-12.82 17.098,-2.13 30.673,-10.45 42.646,-21.566 l 8.035,49.116 c -17.765,10.74 -26.755,23.68 -16.441,41.45 -10.8,4.05 -14.273,11.63 -10.42,22.75 -15.383,-5.39 -23.607,4.45 -28.576,21.22 4.835,14.82 5.237,27.08 -4.11,33.71 -11.165,-3.47 -16.869,2.92 -17.113,19.17 l -10.592,23.42 c 14.264,21.67 -10.119,3.58 -21.222,21.36 -6.468,19.05 -7.18,34.79 6.836,34.72 l 7.023,20.03 c 1.702,6.7 5.755,8.93 12.16,6.68 -1.259,8.62 -8.401,19.93 -21.426,33.92 -17.299,-5.27 -29.635,-3.91 -37.007,4.07 -26.905,6.63 -28.762,-8.38 -52.725,-5.77 -10.531,-1.24 -15.26,5.07 -14.187,18.94 -2.635,10.52 -9.405,11.4 -11.291,21.57 -9.641,4.82 -14.704,1.47 -15.188,-10.05 -9.348,-1.84 -8.306,-12.22 -2.541,-26.49 l -14.16,-6.34 c 5.708,-3.85 5.536,-10.25 -0.514,-19.19 9.34,-3.16 11.73,-14.31 10.961,-29.09 -6.737,-5.52 -3.642,-11.2 0.858,-16.9 -18.512,-52.28 -13.084,-95.95 16.283,-131.02 8.775,-8.34 7.263,-19.62 4.281,-31.31 0.35,-9.65 3.836,-19.58 10.457,-29.79 z"
           style="fill:none;stroke:#000000;stroke-width:1px" /><path
           inkscape:connector-curvature="0"
           id="greywater-watch"
           d="m 420.429,1086.01 3.926,63.39 c -8.156,16.67 -9.469,33.48 -3.94,50.42 -2.875,14.23 -10.257,24.6 -18.283,34.43 2.981,5.5 10.794,7.6 19.297,9.22 l 1.557,6.85 c 9.711,1.43 22.955,11.76 39.734,31 25.382,-20.92 49.828,-23.17 73.633,-12.66 l 31.855,0.66 -3.726,8.89 c 5.149,-2.96 6.862,2.91 5.138,17.6 l 7.68,3.59 c 7.171,-5.41 10.534,-15.39 10.09,-29.92 -5.279,-2.4 -4.708,-7.98 1.713,-16.76 -18.093,-63.51 -9.386,-104.9 17.656,-131.15 6.61,-8.67 6.534,-19.06 1.883,-30.63 -0.119,-8.68 3.649,-18.37 10.277,-31.12 l -53.937,4.1 c -18.808,10.31 -29.422,11.85 -31.842,4.62 -18.06,11.5 -35.46,16.25 -51.895,11.13 -9.585,10.17 -19.849,14.28 -30.789,12.33 -14.594,11.09 -23.584,6.18 -30.027,-5.99 z"
           style="fill:none;stroke:#000000;stroke-width:1px" /><path
           inkscape:connector-curvature="0"
           id="funts-finger"
           d="m 311.077,1133.64 c 30.493,-4.41 48.524,-19.3 54.094,-44.67 l 16.6,-3.08 c 12.176,9.29 24.259,9.52 38.992,0.68 l 3.428,63.27 c -9.567,12 -8.99,29.94 -4.043,52.53 -4.806,12.31 -11.133,22.82 -18.983,31.51 -19.573,-5.63 -38.346,-2.66 -56.32,8.9 -6.053,-1.89 -12.086,0.11 -18.1,5.98 -26.391,-4.68 -46.622,-0.07 -60.691,13.84 -8.343,-5.72 -18.38,-8.05 -32.143,-2.91 -14.182,-5.09 -27.989,-5.38 -41.419,-0.86 l -21.682,-14.38 c 0.598,-4.22 -2.729,-10.13 -9.25,-19.71 13.405,-19.08 23.264,-34.52 26.178,-46.36 13.399,-7.77 23.218,-20.28 29.459,-37.52 2.797,-5.23 7.231,-5.86 13.302,-1.89 -3.739,5.97 -1.807,9.43 5.795,10.38 2.567,5.32 6.222,9.08 10.963,11.3 l 15.543,-7.38 c 4.794,23.51 17.406,26.76 39.838,11.43 24.799,-8.08 27.612,-18.43 8.439,-31.06 z"
           style="fill:none;stroke:#000000;stroke-width:1px" /><path
           inkscape:connector-curvature="0"
           id="white-harbor"
           d="m 775.007,1015.77 c -38.152,-44.559 -37.223,-79.725 2.789,-105.5 20.033,-6.852 21.621,-22.156 4.763,-45.911 12.488,-65.05 38.968,-103.966 73.703,-127.461 20.754,-6.534 53.007,-39.887 90.487,-85.43 44.143,-26.224 12.848,15.005 69.611,23.576 14.11,26.932 35.07,36.187 62.89,27.765 l 0.5,18.784 c 0.69,5.804 3.44,7.458 8.24,4.964 -0.3,14.672 9.8,23.451 30.29,26.336 -2.91,5.672 -4.58,11.668 2.47,19.919 -19.25,-0.605 -28.91,3.246 -28.98,11.555 -33.1,0.561 -48.72,-10.207 -68.62,3.776 0.12,14.012 -10.58,21.638 -32.089,22.88 -21.648,9.352 -8.135,28.266 -17.797,31.916 12.695,45.867 -30.012,28.805 -36.086,55.316 13.752,13.763 11.826,21.275 10.539,41.763 l 23.868,15.648 c 18.017,10.488 26.409,20.962 25.177,31.422 18.818,9.433 33.948,8.272 47.388,2.294 l 1.98,27.528 c -5.61,4.46 -10.54,9.85 -10.69,21.74 -7.86,9.69 -10.55,17.9 -8.07,24.64 -7.57,1.28 -11.9,6.11 -13.01,14.48 -24.615,0.52 -42.139,4.87 -44.062,17.65 L 947.366,1079.28 860.949,1060 c 3.834,-31.85 -5.077,-55.93 -22.708,-74.714 -8.035,-18.369 -15.07,-15.58 -21.104,8.367 -16.844,15.637 -30.265,21.177 -42.13,22.117 z"
           style="fill:none;stroke:#000000;stroke-width:1px" /><path
           inkscape:connector-curvature="0"
           id="widows-watch"
           d="m 1020.97,786.079 c 3.98,13.322 -6.19,21.677 -30.51,25.064 -21.958,11.996 -7.387,29.64 -18.291,30.49 15.518,46.694 -24.429,26.525 -35.304,57.02 12.319,10.171 15.244,23.906 8.775,41.207 21.683,20.044 48.404,19.583 51.465,45.91 13.865,9.683 29.745,10.102 47.005,4.184 1.27,-13.084 3.53,-25.647 12.72,-34.563 3.05,-3.06 5.23,-7.096 6.55,-12.107 -10.25,-31.598 -4.87,-41.724 16.14,-30.379 7.77,1.609 13.04,4.984 15.81,10.127 8.92,-0.294 16.8,2.584 24.2,6.904 12.42,-5.778 22.35,-6.282 26.78,4.813 6,2.695 11.57,3.479 16.7,2.351 8.71,9.873 17.39,13.206 26.03,9.998 4.23,-2.325 13.36,-2.315 24.72,-1.242 -16.36,-0.963 -23.56,-6.276 -21.61,-15.939 -14.49,2.181 -21.61,-1.201 -21.36,-10.145 l -15.75,0.26 c -2.71,-7.557 -7.1,-17.244 -3.89,-28.418 5.28,-1.858 8.96,-4.535 9.14,-9.016 -8.53,0.593 -13.02,-6.398 -13.46,-20.974 l 8.71,0.355 -4.47,-12.166 -12.51,0.389 c -6.41,-7.372 -11.05,-17.212 -9.02,-25.492 l -8.11,-2.073 2.6,-7.072 c -14.79,4.074 -24.97,-8.597 -33.07,-28.879 -32.67,-1.788 -44.99,-12.359 -69.99,-0.607 z"
           style="fill:none;stroke:#000000;stroke-width:1px" /><path
           inkscape:connector-curvature="0"
           id="karhold"
           d="m 1104.4,394.96 c -26.72,11.399 -50.6,4.969 -72.45,-14.264 -11.34,-15.257 -25.45,-15.291 -41.852,-2.712 -20.828,13.291 -33.145,16.236 -37.209,34.813 20.112,25.985 39.476,53.952 57.571,85.276 30.12,11.648 46,21.849 41.04,29.935 4.04,22.732 16.88,12.862 27.09,36.404 l 0.74,38.561 c 3.14,5.599 8.12,7.058 14.94,4.379 -8.34,10.827 -7.52,24.496 -4.81,38.754 5.51,16.42 18.92,7.306 28.58,17.837 5.42,-0.047 10.83,0.559 16.18,5.74 1.61,6.642 4.14,11.106 7.59,13.393 9.02,0.864 14.31,-2.407 11.35,-14.773 -0.53,-8.56 3.23,-13.901 9.94,-17.041 l 25.12,0.185 11.12,-27.158 c -5.18,-13.425 -2.71,-22.101 4.99,-27.528 -1.5,-5.754 -0.28,-9.586 3.66,-11.496 -5.03,-17.064 -5.59,-34.039 -0.74,-50.91 12.19,7.068 18.96,17.779 17.84,33.813 10.59,3.493 20.11,6.988 28.07,10.487 l -0.55,14.19 9.82,8.155 6.05,-15.431 c -5.24,-7.38 -5.01,-15.733 -1.04,-24.751 9.46,-2.763 12.61,-11.377 12.9,-22.649 6.78,-3.504 12.84,-14.303 18.41,-30.094 l -4.81,-10.496 c 5.72,-3.749 8.28,-10.46 7.65,-20.133 -8.47,-1.461 -8.45,-7.702 -4.57,-16.115 -11.85,-2.003 -14.24,-12.353 -8.77,-29.619 -7.53,-5.646 -11.41,-11.289 -11.66,-16.931 -20.19,6.195 -36.77,9.302 -48.08,7.896 -7.06,17.897 -21.23,19.471 -38.63,13.625 -0.09,-5.54 0,-8.523 -3.78,-9.692 -10.73,1.043 -16.97,-4.943 -21.17,-14.125 -13.16,3.901 -22.18,0.099 -29.09,-7.599 -16.49,5.067 -26.96,1.759 -31.44,-9.926 z"
           style="fill:none;stroke:#000000;stroke-width:1px" /><path
           inkscape:connector-curvature="0"
           id="the-stony-shore"
           d="m 322.94,663.822 c -5.222,12.621 -16.742,12.396 -31.125,6.332 -17.299,-4.932 -18.208,-3.451 -2.728,4.443 6.523,3.679 10.118,9.548 10.098,17.006 -0.011,4.474 -1.324,9.521 -4.087,15.008 l -11.295,2.468 c 13.671,7.123 13.359,21.728 -8.565,34.717 l -13.415,-4.69 c -7.395,2.472 -12.936,0.715 -16.624,-5.269 -7.419,0.411 -13.923,-3.103 -19.513,-10.541 -5.381,-0.112 -10.582,-1.126 -15.389,-4.122 -6.004,2.101 -12.299,7.396 -18.884,15.883 -7.6,18.451 -6.922,32.971 -12.181,32.989 0.407,10.215 -3.571,16.662 -11.935,19.34 3.583,10.717 2.896,17.682 -2.061,20.895 1.816,6.801 0.809,12.54 -1.481,17.796 l -8.887,5.171 c 0.801,4.714 -0.215,8.663 -3.048,11.848 7.129,12.007 7.372,22.486 0.728,31.435 l 9.38,7.651 9.8,-4.036 c 1.804,10.103 -0.858,19.145 -7.986,27.125 -7.312,16.861 -5.366,17.355 5.837,1.482 10.034,-9.956 20.537,-15.298 31.607,-15.069 l 10.38,-16.304 c 0.037,-6.843 1.752,-12.68 7.158,-16.304 l 8.565,-0.246 1.322,30.434 -9.554,17.044 0.235,42.281 13.575,17.513 c 9.991,2.288 12.368,12.33 10.935,29.46 l -4.282,4.848 -0.174,8.73 c 20.713,4.51 30.798,12.46 25.351,25.42 5.882,6.96 13.427,9.54 22.634,7.73 l 3.541,21.72 43.11,-1.32 c 3.957,-2.4 6.342,-6.64 5.269,-14.91 l 5.851,0.74 4.295,-7.16 19.906,0.99 c -0.635,-10.34 0.926,-22.66 8.9,-31.13 6.375,-28.691 12.767,-29.324 19.179,-1.9 -0.502,13.2 -2.584,21.37 -6.245,24.52 l 0,6.84 10.86,10.69 23.869,0.89 c 0.742,-6.89 4.033,-13.4 12.935,-19.11 7.41,-17.7 17.886,-27.01 32.841,-24.03 14.543,3.59 19.824,-13.334 20.894,-39.589 34.641,-41.162 57.818,-90.975 66.138,-152.002 -4.761,-5.786 -6.024,-11.665 -3.789,-17.636 -19.602,-7.985 -28.599,-17.804 -26.99,-29.459 l -27.524,-18.711 c -35.907,3.033 -52.458,-9.778 -52.97,-35.717 -26.145,-41.245 15.777,-38.716 -42.408,-64.225 -11.502,-15.145 -40.444,-8.705 -82.053,12.041 z"
           style="fill:none;stroke:#000000;stroke-width:1px" /><path
           inkscape:connector-curvature="0"
           id="castle-black"
           d="m 759.652,218.863 265.468,1.834 c 1.74,7.218 4.78,11.37 9.12,12.457 -4.48,29.976 0.5,46.274 14.93,48.893 1.05,5.736 4.26,7.247 9.64,4.535 -1.36,5.313 -0.75,11.053 4.2,17.732 -0.4,4.779 0.07,9.402 6.67,12.94 -3.4,8.152 -0.43,18.205 5.42,29.121 -1.68,15.211 0.26,25.158 3.83,32.711 -2.09,8.314 -1.56,14.979 1.61,19.994 -40.07,10.654 -51.74,-51.635 -89.003,-19.143 -24.043,10.242 -38.836,17.245 -38.045,34.452 -37.351,-23.257 -68.859,-35.607 -82.084,-13.828 -5.12,9.014 -15.703,11.89 -31.748,8.626 -7.06,0.055 -14.422,3.498 -22.086,10.329 -19.784,17.139 -15.254,-3.308 -45.338,24.566 -21.183,30.431 -33.747,43.833 -37.691,40.207 -24.448,-5.793 -48.806,28.612 -65.574,11.828 -29.147,0.009 -50.188,0.336 -57.016,-9.996 l -1.482,-8.773 c 7.253,-4.177 12.073,-10.688 14.459,-19.532 13.735,-11.142 10.622,-23.004 -0.149,-35.193 4.067,-2.781 5.925,-6.859 5.572,-12.236 6.769,0.364 10.688,-4.073 11.756,-13.311 4.845,-3.114 5.753,-9.328 2.723,-18.642 0.111,-12.629 -6.393,-22.485 -19.514,-29.567 11.017,-3.235 15.503,-7.104 13.459,-11.607 27.69,-7.851 42.136,-18.261 43.338,-31.231 5.751,4.158 12.292,4.769 19.623,1.832 14.142,-0.026 18.709,-7.721 13.699,-23.084 7.071,-8.944 13.982,-17.676 31.231,-40.226 7.891,-2.125 12.219,-10.688 12.982,-25.688 z"
           style="fill:none;stroke:#000000;stroke-width:1px" /><path
           inkscape:connector-curvature="0"
           id="winterfell"
           d="m 611.537,487.287 c -7.955,6.207 -15.114,10.395 -16.699,0.447 -11.003,23.536 -20.286,21.119 -28.787,6.905 l -10.367,5.183 c -7.105,21.086 -18.292,22.443 -33.563,4.073 l -10.57,8.757 c -11.944,12.039 -21.183,5.805 -27.715,-18.701 -18.09,-2.912 -17.047,-12.89 -22.547,-29.711 0.353,17.966 6.324,32.162 13.107,32.674 l 1.963,19.994 -1.851,12.348 -44.319,21.103 -58.5,-19.994 -24.806,-11.236 c -4.348,-1.88 -6.957,-8.099 -8.776,-16.291 l -3.812,-8.647 -28.899,-22.713 c -10.478,15.687 -25.636,14.618 -41.097,8.977 l -3.461,6.664 c 23.229,2.944 36.07,9.893 44.189,18.662 16.475,11.492 21.498,23.099 15.069,34.822 l -6.444,11.516 c 7.183,8.55 11.945,27.924 15.051,54.705 l -16.92,2.369 c -0.66,14.543 -11.608,19.751 -31.101,19.364 l 17.513,8.646 c 11.372,-2.68 19.844,6.292 25.416,26.916 l 47.614,-20.252 c 13.762,-2.664 26.218,-1.803 35.802,6.813 25.834,10.583 34.788,23.277 32.194,37.414 -0.972,7.925 2.713,17.832 8.515,28.638 -0.515,17.846 8.337,30.643 30.879,36.063 l 21.975,-1.26 27.289,19.754 c -2.436,12.613 9.117,21.282 27.027,28.158 -3.36,7.884 -2.25,13.893 3.332,18.03 -7.488,57.005 -29.351,107.742 -65.59,152.209 -1.389,27.609 -4.15,39.654 -20.234,40.934 l -7.295,16.92 -6.183,20.12 27.527,-9.39 c 3.334,5.42 8.271,4.42 14.81,-2.98 l 13.348,-9.01 13.108,0 c 5.587,7.3 14.757,10.51 27.509,9.62 6.614,2.16 10.539,7.56 11.776,16.18 34.792,0.38 71.173,-5.45 108.871,-16.42 l 6.793,4.59 c 32.158,-18.26 32.137,-22.94 76.179,-10.53 7.62,-2.44 17.227,-7.17 18.901,-12.22 -8.2,-7.08 -16.849,-20.053 -22.473,-30.639 -15.454,-32.235 -9.284,-56.591 18.512,-73.068 24.738,-8.037 25.235,-24.982 9.146,-48.022 -1.582,-11.921 -0.271,-25.958 7.405,-44.65 26.245,-53.618 49.781,-80.812 70.607,-81.584 24.844,-17.647 54.001,-49.096 83.824,-82.676 12.745,-20.453 26.709,-15.154 41.227,1.85 10.011,15.171 19.904,19.033 29.734,17.754 15.47,19.716 31.04,34.852 47.08,27.918 l 14.32,-2.223 17.46,2.852 -10.98,-8.905 -2.22,-12.847 12.13,-1.483 c -11.59,-0.952 -14.67,-9.153 -9.24,-24.603 l 5.33,-11.035 -0.74,-27.139 5.32,-10.885 c -6.33,2.34 -11.44,0.815 -15.33,-4.574 l -0.37,-35.395 c 1.63,-7.463 -3.14,-14.46 -14.33,-20.992 -5.78,-2.387 -10.1,-8.565 -12.98,-18.533 7.5,-8.249 -9.91,-18.837 -38.63,-30.488 -25.363,-41.095 -46.075,-70.974 -58.912,-81.844 -34.983,-23.432 -66.493,-38.764 -81.265,-15.068 -9.391,9.007 -20.74,11.185 -34.045,6.533 -16.72,10.555 -32.597,19.77 -42.578,19.605 -27.068,8.327 -40.6,45.988 -59.24,56.147 -19.022,-7.059 -42.409,24.704 -65.663,13.33 -25.725,1.411 -47.199,-0.46 -59.32,-9.549 z"
           style="fill:none;stroke:#000000;stroke-width:1px" /><path
           inkscape:connector-curvature="0"
           id="pike"
           d="m 102.755,1337.39 304.96,0 c 9.531,70.12 0.82,117.12 -23.007,144.98 8.354,4.56 9.191,12.54 2.51,23.92 l 12.524,8.16 0,12.3 -15.737,10.24 c -15.388,-5.19 -23.216,-2.44 -23.485,8.23 -30.901,-15.48 -0.279,15.07 -80.612,34.03 -6.803,-6.3 -14.778,-8.96 -25.331,-3.6 -11.295,9.43 -19.281,10.36 -23.958,2.78 l -128.833,-120.17 0.969,-120.87 z"
           style="fill:none;stroke:#000000;stroke-width:1px" /><path
           inkscape:connector-curvature="0"
           id="the-twins"
           d="m 747.364,1288.89 -22.399,32.87 -37.854,2.06 c -11.199,7.04 -27.968,-4.39 -51.817,-3.91 3.521,4.99 2.538,9 -2.951,12.03 1.32,6.45 -1.726,15.18 -9.135,26.21 -3.312,8.08 -2.563,14.52 2.247,19.32 15.688,-0.95 23.802,6.73 24.341,23.03 1.775,20.39 18.544,30.15 35.169,41.19 12.365,-1.78 17.115,6 18.25,18.43 7.662,4.19 14.334,9.01 14.086,18.25 13.104,11.05 20.174,20.69 21.211,28.94 13.956,-31.55 28.591,-51.06 44.722,-44.08 6.564,-5.23 18.128,-7.89 34.692,-7.97 10.257,-13.11 20.868,-21.64 31.834,-25.6 5.073,-8.83 17.514,-8.37 33.304,-3.67 l 8.659,-11.11 c -22.311,-7.8 -33.05,-31.9 -35.869,-67.14 18.145,-26.9 13.618,-35.58 -11.42,-61.6 l -46.054,6.16 c -13.173,16.07 -25.709,15.25 -37.607,-2.46 l -13.409,-0.95 z"
           style="fill:none;stroke:#000000;stroke-width:1px" /><path
           inkscape:connector-curvature="0"
           id="riverrun"
           d="m 626.82,1483.87 c 0.743,25.41 -3.701,35.82 -10.503,39.41 -6.107,17.32 -17.455,23.79 -34.044,19.41 -2.827,12.35 -11.34,15.16 -25.542,8.45 -1.519,18.19 -10.729,29.42 -27.63,33.71 -17.415,16.04 -31.901,22.53 -39.945,7.97 1.443,40.09 50.305,41.64 18.479,70.67 l -4.091,25.29 c 8.034,10.95 26.209,9.07 18.953,24.41 l 1.599,12.22 c 19.495,15.01 51.138,4.26 88.302,-18.21 2.793,-31.82 24.001,-21.57 24.359,-45.18 21.145,-1.87 41.261,-16.41 60.672,-39.62 19.551,16.66 38.563,21.21 57.034,13.66 l 5.937,3.43 c 20.567,-13.73 31.317,-0.07 44.776,9.99 10.562,-1.78 20.154,-4.1 22.956,-10.2 -22.605,-13.49 -9.79,-19.81 -25.101,-51.78 -33.631,-22.2 -53.679,-46.39 -69.386,-71.23 -30.016,18.89 -56.414,-14.88 -106.825,-32.4 z"
           style="fill:none;stroke:#000000;stroke-width:1px" /><path
           inkscape:connector-curvature="0"
           id="harrenhal"
           d="m 864.587,1651.54 c -3.849,30.7 1.993,53.89 9.22,76 16.117,-2.04 11.032,34.3 1.396,81.81 -27.928,31.71 -31.842,7.82 -53.107,26.05 -36.586,-13.31 -69.581,-21.71 -94.672,-9.95 -16.406,-13.24 -16.682,-34.35 -0.828,-63.32 -43.819,-39.14 -64.981,-72.57 -36.295,-93.44 l -15.957,-19 23.306,-28.91 c 13.035,17.69 31.818,21.86 56.35,12.51 l 8.508,5.44 c 11.986,-9.77 24.773,-8.16 38.36,4.81 4.042,6.44 13.483,5.61 28.325,-2.51 1.59,14.17 16.018,15.34 36.282,10.61 l -0.888,-0.1 z"
           style="fill:none;stroke:#000000;stroke-width:1px" /><path
           inkscape:connector-curvature="0"
           id="crackclaw-point"
           d="m 951.477,1687.47 -86.952,-34.95 c -1.637,24.38 1.624,49.2 8.237,74.33 15.248,-2.64 14.156,27.91 1.883,81.17 -30.23,35.16 -39.297,3.88 -52.299,26.32 19.092,8.22 25.429,18.64 19.011,31.28 3.169,21.11 12.033,37.89 24.793,51.69 36.862,-44.52 70.508,-56.62 100.94,-36.31 32.276,-5.79 54.07,-6.38 68.68,-3.41 l 27.59,-46.54 c 20.18,-11.87 24.6,-20.89 18.37,-32.53 l 31.14,-24.79 c 5.68,-10.18 12.07,-10.01 19.15,0.51 l 16.43,-0.84 c -8.42,-16.55 6.55,-21.64 37.52,-18.91 l 1.53,-15.53 38.21,-1.74 c 0.9,-9.86 8.5,-18.97 22.77,-27.34 -9.41,-5.39 -12,-11.52 -11.47,-17.97 12.61,0.59 23,-7.26 31.2,-23.54 -2.57,-6.37 -1.2,-15.33 4.09,-26.86 l -8.87,0.51 c -10.5,18.02 -23.85,29.15 -40.04,33.4 -5.47,14.41 -17.5,18.48 -32.53,17.84 -6.01,11.91 -16.5,18.76 -31.44,20.57 -24.1,32.87 -28.73,14.68 -84.05,1.74 l -23.95,4.95 c -33.97,21.88 -67.285,10.87 -99.943,-33.05 z"
           style="fill:none;stroke:#000000;stroke-width:1px" /><path
           inkscape:connector-curvature="0"
           id="the-mountains-of-the-moon"
           d="m 739.379,1506.45 c 6.857,12.64 16.637,23.43 27.746,33.38 14.603,9.93 11.758,21.92 29.602,33.89 17.455,4.32 25.084,23.05 28.246,48.32 l 17.216,19.08 34.069,-2.4 79.681,40.59 24.823,-0.86 c 22.478,19.01 51.978,20.1 88.508,3.26 l 7.99,4.24 c 7.28,-1.26 16.13,-6.56 26.55,-15.9 3.2,-4.89 -0.51,-10.42 -11.12,-16.57 -14.35,1.78 -23.76,-4.1 -28.25,-17.63 l -33.84,-13.16 c -2.89,-12.67 -11.56,-25.66 -60.745,-40.92 l 5.795,-7.34 -24.964,-17.6 c 7.624,-22.25 32.595,-25.33 65.454,-19.69 15.72,0.34 17.46,-2.97 5.24,-9.94 -26.743,-5.11 -15.81,-11.92 0.51,-18.98 l 34.09,-10.62 c 7.45,5.9 15.48,5.05 24.08,-2.57 7.7,2.14 11.71,8.26 14.03,16.2 l 15.06,10.22 c 36.02,-8.2 39.95,-28.25 93.99,-37.69 9.58,-22.89 2.19,-14.53 6.01,-35.81 l 34.93,-2.41 c 16.92,-5.93 25.32,-11.73 29.86,-17.49 -11.29,-2.67 -10.45,-11.27 -4.1,-22.56 l 13.51,6.48 c 8.18,-7.21 12.87,-13.41 22.39,-10.28 l 3.26,-19.28 c -10.46,1.95 -15.87,-0.43 -16.23,-7.15 -4.62,-7.08 0.26,-11.99 6.49,-16.59 l -14.16,6.29 c 0.04,15.02 -4.86,24.16 -14.73,21.23 -17.53,-0.3 -17.2,-13.01 -14.33,-23.94 l -16.9,0 c -2.48,-7.77 3.51,-14.9 17.97,-21.37 8.56,-0.88 12.15,-5.09 10.77,-12.63 8.67,-6.73 16.76,-10.25 24.6,-12.32 l -2.4,-9.87 7.87,-11.98 c -16.85,17.11 -31.89,26.84 -42.98,20.34 -0.25,6.96 -7.09,11.34 -20.54,13.16 -8.36,5.16 -19.88,6.59 -34.55,4.28 -11.76,9.71 -23.01,12.76 -33.16,1.19 -7.01,16.22 -13.64,16.13 -20.22,13.7 0.85,12.91 -19.9,19.81 -50.49,23.96 -28.22,37.11 -55.77,50.36 -82.64,39.77 l -28.259,10.62 c -59.021,-18.45 -49.784,5.24 -94.986,-5.66 l -7.408,10.24 c -22.547,-13.34 -47.399,12 -65.67,31.33 -18.336,-2.2 -28.764,0.32 -35.598,4.99 -21.487,-0.23 -33.851,17.93 -42.07,44.45 z"
           style="fill:none;stroke:#000000;stroke-width:1px" /><path
           inkscape:connector-curvature="0"
           id="the-eyrie"
           d="m 1091.51,1510.28 c -0.81,-7.56 -4.29,-12.41 -10.42,-14.55 -8.79,7.88 -17.9,7.95 -27.33,0.22 -43.27,15.31 -64.758,26.61 -38.32,29.12 17.71,7.37 16.29,11.18 -4.27,11.43 -35.882,-4.31 -56.179,2.31 -60.893,19.87 l 25.164,16.27 -6.337,9.21 c 31.796,7.14 51.536,20.08 59.236,38.85 l 35.44,14.73 c 2.57,12.8 12.38,19.19 29.43,19.15 11.34,5.06 15.16,10.36 11.44,15.9 19.96,7.1 38.99,-4.83 57.37,-29.77 l 14.58,-21.74 31.29,-4.13 -25.69,-4.96 c -9.83,-9.05 -4.6,-20.85 10.93,-34.54 l -16.74,-10.95 c -40.01,-2.91 -46.42,-9.83 -3.76,-22.58 15.55,-6.19 31.96,-7.57 48.96,-5.66 l 13.66,18.61 26.52,-25.28 12.32,21.41 c 29.89,-7.55 21.29,-24.44 55.28,-32 l 15.4,-23.27 c -14.65,3.53 -27.37,2.16 -38.15,-4.11 -7.18,5.18 -13.44,4.5 -18.8,-2.05 -9.28,8.09 -18.37,7.41 -27.38,2.74 -9.84,15.82 -21.24,18.74 -33.7,12.83 -19.2,12.07 -37.51,15.72 -54.95,10.96 -24.42,10.62 -45.07,12.05 -61.94,4.28 l -18.34,-9.99 z"
           style="fill:none;stroke:#000000;stroke-width:1px" /><path
           inkscape:connector-curvature="0"
           id="highgarden"
           d="m 229.145,2153.28 c 24.204,18.78 37.525,38.1 34.94,58.19 l 6.604,9.56 c 24.996,-6.72 39.757,-0.71 44.284,18.04 37.534,2.92 52.372,12.36 44.513,28.31 48.671,28.72 44.941,44.55 -11.19,47.46 l -12.312,8.72 c 28.508,17.22 38.163,29.69 28.963,37.43 12.347,6 17.511,11.99 15.492,17.97 11.205,-1.49 19.712,-2.23 25.521,3.22 l 24.453,-7.98 c 20.734,-24.14 42.879,-41.86 66.435,-53.13 l 37.753,-28.34 c 9.846,-4.47 4.67,-16.94 -15.529,-37.4 l -23.008,-0.68 c -3.325,-20.95 -16.597,-45.46 -31.934,-70.7 -24.617,-14.66 -48.909,-27.41 -72.355,-35.17 -13.674,-13.01 -29.429,-22.11 -49.763,-22.6 l -22.38,12.34 c -27.591,10.13 -57.753,15.05 -90.487,14.76 z"
           style="fill:none;stroke:#000000;stroke-width:1px" /><path
           inkscape:connector-curvature="0"
           id="the-reach"
           d="m 496.989,2255.5 21.904,2.72 c 11.284,12.44 20.243,21.96 19.145,34.03 12.491,-1.24 27.105,-3.65 42.685,-6.59 8.157,-3.81 15.236,-10.66 21.237,-20.55 35.415,-4.91 71.235,6.73 107.331,29.69 25.126,-1.14 45.583,8.21 61.372,28.07 2.562,13.07 15.848,16.59 34.008,15.75 l 77.414,-49.97 c -16.389,-12.83 -29.106,-26.55 -33.742,-42.21 l 8.451,-45.18 c 39.283,-9.97 61.657,-36.1 59.317,-85.85 -8.149,-4.31 -20.133,-12.27 -40.554,-28.26 -13.306,-7.16 -13.141,-30.95 -6.852,-62.3 -24.452,-15.65 -45.107,-7.28 -63.164,17.55 -46.459,17.14 -62.753,34.85 -58.406,52.96 -26.841,-6.39 -45.028,2.55 -59.281,18.46 l -29.441,-2.04 c -26.757,12.64 -52.316,18.35 -76.674,17.13 -11.829,-9.54 -27.007,-15.46 -49.555,-13.44 -11.762,9.41 -31.705,9.33 -57.245,2.74 -12.359,33.05 -16.534,54.13 -12.525,63.24 13.766,12.82 22.646,39.3 34.575,74.05 z"
           style="fill:none;stroke:#000000;stroke-width:1px" /><path
           inkscape:connector-curvature="0"
           id="salt-shore"
           d="m 778.908,2672.56 -14.57,10.61 c 16.262,37.04 -23.095,57.82 28.418,84.41 l 4.812,12.72 c 23.88,-15.06 47.651,-9.05 71.348,11.37 11.279,-6.81 22.096,-9.93 32.451,-9.39 l 15.922,-39 c 25.072,8.16 47.261,17.08 63.109,27.65 18.299,-9.51 36.472,-16.05 54.072,-8.29 l 11.87,-12.72 c 28.15,17.69 57.8,25.18 90.75,10.22 l 2.83,7.55 6.43,-12.71 c 8.92,7.52 18.37,11.02 29.01,5.66 8.36,-20.98 19.27,-29.26 32.73,-24.83 13.46,0.66 20.08,-13.62 23.58,-34.71 -32.98,0.38 -51.88,-12.13 -66.27,-28.77 -30.65,5.48 -60.94,9.45 -88.73,2.97 -14.13,-10.59 -29.31,-14.79 -46.03,-9.65 -45.449,-0.44 -71.868,-11.7 -92.204,-26.42 l -79.844,47.76 -33.565,-15.82 c -15.629,11.07 -31.075,14.57 -46.119,1.39 z"
           style="fill:none;stroke:#000000;stroke-width:1px" /><path
           inkscape:connector-curvature="0"
           id="the-arbor"
           d="m 174.645,2737 -108.7785,0 0,146.02 104.8545,0 55.388,-71.14 c 4.55,2.05 10.927,1.22 19.13,-2.49 8.578,-7.89 6.841,-14.18 3.63,-20.24 -11.514,0.69 -20.08,-9.41 -25.698,-30.29 l -17.969,2.97 c -8.07,-5.62 -8.055,-13.59 -6.885,-21.9 -10.728,-14.84 -20.509,-25.07 -23.672,-2.93 z"
           style="fill:none;stroke:#000000;stroke-width:1px" /><path
           inkscape:connector-curvature="0"
           id="dragonstone"
           d="m 1322.54,1698.66 142.98,0 0,246.04 -111.07,0 -112.43,-146.1 c -18.88,-7.9 -9.52,-13.21 12.69,-17.35 l 9.75,0 58.08,-82.59 z"
           style="fill:none;stroke:#000000;stroke-width:1px" /><g
           id="port-winterfell"><path
             inkscape:connector-curvature="0"
             d="m 408.425,461.079 c 32.312,0 58.507,26.195 58.507,58.507 0,32.312 -26.195,58.506 -58.507,58.506 -32.312,0 -58.506,-26.194 -58.506,-58.506 0,-32.312 26.194,-58.507 58.506,-58.507 z"
             style="fill:none;stroke:#000000;stroke-width:1.33000004px"
             id="path3526" /></g><path
           inkscape:connector-curvature="0"
           id="bay-of-ice"
           d="m 94.5602,1064.26 c -23.7099,-14.48 -55.0924,-12.25 -94.14744,6.7 L -1.80794,1.64193 197.983,0.837244 C 205.597,3.34941 187.274,47.7767 165.245,98.1918 c -7.312,29.4352 11.104,33.7742 41.213,26.7062 -5.08,40.253 12.6,52.534 53.042,36.841 17.516,-3.298 28.508,1.584 32.977,14.646 -7.005,16.566 1.82,28.348 26.475,35.346 25.498,29.863 62.346,53.729 108.597,72.624 35.688,-17.494 66.537,-37.416 86.743,-62.676 l 16.823,-38.826 85.509,-10.94 c 4.863,14.081 -10.293,28.969 -28.308,43.972 30.466,5.284 33.886,20.814 33.442,37.808 l 32.86,-10.042 49.995,11.126 c -0.763,15 33.933,-10.64 26.041,-8.515 -17.249,22.55 -8.144,29.571 -15.215,38.515 5.01,15.363 0.443,23.058 -13.699,23.084 -7.331,2.937 -13.872,2.326 -19.623,-1.832 -1.202,12.97 -15.648,23.38 -43.338,31.231 2.044,4.503 -2.442,8.372 -13.459,11.607 13.121,7.082 19.625,16.938 19.514,29.567 3.03,9.314 2.122,15.528 -2.723,18.642 -1.068,9.238 -4.987,13.675 -11.756,13.311 0.353,5.377 -1.505,9.455 -5.572,12.236 10.771,12.189 13.884,24.051 0.149,35.193 -2.386,8.844 -7.206,15.355 -14.459,19.532 l 1.482,8.773 c 1.014,1.534 2.341,2.834 3.962,3.933 -1.572,-0.837 -3.034,-1.757 -4.38,-2.767 -7.955,6.207 -15.114,10.395 -16.699,0.447 -11.003,23.536 -20.286,21.119 -28.787,6.905 l -10.367,5.183 c -7.105,21.086 -18.292,22.443 -33.563,4.073 l -10.57,8.757 c -11.944,12.039 -21.183,5.805 -27.715,-18.701 -18.09,-2.912 -17.047,-12.89 -22.547,-29.711 0.353,17.966 6.324,32.162 13.107,32.674 l 1.963,19.994 -1.851,12.348 -9.285,4.421 c 1.117,-4.513 1.709,-9.233 1.709,-14.091 0,-32.312 -26.195,-58.507 -58.507,-58.507 -32.312,0 -58.506,26.195 -58.506,58.507 0,0.308 0.002,0.615 0.007,0.921 l -3.043,-1.378 c -4.348,-1.88 -6.957,-8.099 -8.776,-16.291 l -3.812,-8.647 -28.899,-22.713 c -10.478,15.687 -25.636,14.618 -41.097,8.977 l -3.461,6.664 c 23.229,2.944 36.07,9.893 44.189,18.662 16.475,11.492 21.498,23.099 15.069,34.822 l -6.444,11.516 c 7.183,8.55 11.945,27.924 15.051,54.705 l -16.92,2.369 c -0.66,14.543 -11.608,19.751 -31.101,19.364 l 17.513,8.646 c 11.27,-2.656 19.691,6.131 25.265,26.361 l -0.52,0.258 c -5.222,12.621 -16.742,12.396 -31.125,6.332 -17.299,-4.932 -18.208,-3.451 -2.728,4.443 6.523,3.679 10.118,9.548 10.098,17.006 -0.011,4.474 -1.324,9.521 -4.087,15.008 l -11.295,2.468 c 13.671,7.123 13.359,21.728 -8.565,34.717 l -13.415,-4.69 c -7.395,2.472 -12.936,0.715 -16.624,-5.269 -7.419,0.411 -13.923,-3.103 -19.513,-10.541 -5.381,-0.112 -10.582,-1.126 -15.389,-4.122 -6.004,2.101 -12.299,7.396 -18.884,15.883 -7.6,18.451 -6.922,32.971 -12.181,32.989 0.407,10.215 -3.571,16.662 -11.935,19.34 3.583,10.717 2.896,17.682 -2.061,20.895 1.816,6.801 0.809,12.54 -1.481,17.796 l -8.887,5.171 c 0.801,4.714 -0.215,8.663 -3.048,11.848 7.129,12.007 7.372,22.486 0.728,31.435 l 9.38,7.651 9.8,-4.036 c 1.804,10.103 -0.858,19.145 -7.986,27.125 -7.312,16.861 -5.366,17.355 5.837,1.482 10.034,-9.956 20.537,-15.298 31.607,-15.069 l 10.38,-16.304 c 0.037,-6.843 1.752,-12.68 7.158,-16.304 l 8.565,-0.246 1.322,30.434 -9.554,17.044 0.235,42.281 13.575,17.513 c 9.991,2.288 12.368,12.33 10.935,29.46 l -4.282,4.848 -0.174,8.73 c 20.713,4.51 30.798,12.46 25.351,25.42 5.882,6.96 13.427,9.54 22.634,7.73 l 3.541,21.72 43.11,-1.32 c 3.957,-2.4 6.342,-6.64 5.269,-14.91 l 5.851,0.74 4.295,-7.16 19.906,0.99 c -0.635,-10.34 0.926,-22.66 8.9,-31.13 6.375,-28.691 12.767,-29.324 19.179,-1.9 -0.502,13.2 -2.584,21.37 -6.245,24.52 l 0,6.84 10.86,10.69 23.869,0.89 c 0.742,-6.89 4.033,-13.4 12.935,-19.11 7.41,-17.7 17.886,-27.01 32.841,-24.03 14.543,3.59 19.824,-13.334 20.894,-39.589 2.751,-3.269 5.43,-6.592 8.034,-9.972 -2.559,3.411 -5.2,6.787 -7.922,10.127 -1.389,27.609 -4.15,39.654 -20.234,40.934 l -7.295,16.92 -6.183,20.12 27.527,-9.39 c 3.334,5.42 8.271,4.42 14.81,-2.98 l 13.348,-9.01 13.108,0 c 5.587,7.3 14.757,10.51 27.509,9.62 6.614,2.16 10.539,7.56 11.776,16.18 34.792,0.38 71.173,-5.45 108.871,-16.42 l 5.741,3.88 -3.674,6.93 -58.232,13.16 c -6.621,10.21 -10.107,20.14 -10.457,29.79 0.891,3.5 1.651,6.95 2.044,10.3 -0.554,-2.84 -1.454,-5.77 -2.665,-8.78 -0.119,-8.68 3.649,-18.37 10.277,-31.12 l -53.937,4.1 c -18.808,10.31 -29.422,11.85 -31.842,4.62 -18.06,11.5 -35.46,16.25 -51.895,11.13 -9.585,10.17 -19.849,14.28 -30.789,12.33 -14.342,10.9 -23.272,6.35 -29.689,-5.36 l -0.004,-0.07 -0.025,0.02 c -0.104,-0.19 -0.207,-0.39 -0.309,-0.58 l 0.045,0.73 c -14.601,8.67 -26.607,8.38 -38.703,-0.85 l -16.6,3.08 c -5.57,25.37 -23.601,40.26 -54.094,44.67 19.173,12.63 16.36,22.98 -8.439,31.06 -4.929,3.36 -9.384,5.84 -13.402,7.36 l -16.394,0 c -4.732,-2.79 -8.057,-9.05 -10.042,-18.79 -3.313,5.78 -21.084,-28.75 -20.822,-45.18 -2.358,-6.54 -37.672,-7.41 -44.182,0.39 -41.383,35.25 -77.999,-43.96 -103.2358,-44.22 z"
           style="fill:none;stroke:#000000;stroke-width:1.33000004px" /><path
           inkscape:connector-curvature="0"
           id="ironmans-bay"
           d="m 411.213,1401.48 c -1.71,35.99 -10.841,62.58 -26.505,80.89 8.354,4.56 9.191,12.54 2.51,23.92 l 12.524,8.16 0,12.3 -15.737,10.24 c -15.388,-5.19 -23.216,-2.44 -23.485,8.23 -30.901,-15.48 -0.279,15.07 -80.612,34.03 -6.803,-6.3 -14.778,-8.96 -25.331,-3.6 -11.295,9.43 -19.281,10.36 -23.958,2.78 l -128.833,-120.17 0.969,-120.87 216.652,0 c 9.951,-7.83 22.503,-12.5 36.146,-12.5 13.643,0 26.195,4.67 36.145,12.5 l 16.017,0 c 1.222,8.99 2.144,17.6 2.772,25.83 2.311,6.29 3.572,13.09 3.572,20.18 0,6.31 -0.998,12.38 -2.846,18.08 z m 254.828,100.46 c -4.996,-3.06 -10.647,-5.97 -16.879,-8.75 5.973,2.87 11.576,5.85 16.879,8.75 z m -409.203,117.17 c -36.161,24.41 -78.449,17.94 -119.809,77.6 l -33.486,57.82 c -39.838,-69.39 -61.7715,-108.4 -39.4435,-203.61 -5.603,-20.83 12.1511,-146.01 12.1511,-146.01 7.6781,-17.16 -14.5418,-130.34 5.7382,-144.01 9.1469,-6.17 15.4165,-18.07 17.519,-29.67 13.3332,-30.2 24.8172,-31.73 35.4622,-20.23 3.915,7.38 4.592,8.65 12.815,22.4 7.165,6.47 24.124,4.4 23.025,11.05 l 21.682,14.38 c 13.43,-4.52 27.237,-4.23 41.419,0.86 13.763,-5.14 23.8,-2.81 32.143,2.91 14.069,-13.91 34.3,-18.52 60.691,-13.84 6.014,-5.87 12.047,-7.87 18.1,-5.98 17.974,-11.56 36.747,-14.53 56.32,-8.9 7.359,-8.15 8.055,-8.31 0.967,0.37 2.981,5.5 10.794,7.6 19.297,9.22 l 1.557,6.85 c 9.608,1.42 22.676,11.55 39.204,30.39 l -1.443,0.3 c 2.874,9.91 10.419,14.08 24.791,9.88 23.384,25.94 36.57,51.53 45.024,69.61 20.733,12.12 28.877,24.88 9.325,39.05 -20.994,25.21 -41.362,31.78 -61.601,34.49 l 9.974,27.69 13.383,0.88 15.07,-11.58 c 16.234,-0.16 28.416,-4.28 31.687,-17.1 10.732,-9.68 22.08,-9.3 34.045,1.14 26.872,-4.4 41.468,12.02 43.789,49.27 l 0.604,0.2 c 0.646,24.93 -3.779,35.18 -10.521,38.74 -6.107,17.32 -17.455,23.79 -34.044,19.41 1.359,2.02 -68.248,-25.78 -82.003,-6.46 -30.448,-4.49 -49.782,1.02 -58.002,16.53 -35.455,-0.17 -53.869,4.18 -78.566,27.05 -50.412,15.46 -74.973,50.62 -106.864,39.3 z"
           style="fill:none;stroke:#000000;stroke-width:1.33000004px" /><path
           inkscape:connector-curvature="0"
           id="sunset-sea"
           d="m 192.492,1258.83 c 0.836,-0.28 1.674,-0.54 2.513,-0.79 l -0.184,0.12 -2.329,0.67 z m 107.367,-92.3 c -15.387,9.8 -25.838,10.15 -32.076,0.43 1.458,2.27 3.143,3.97 5.059,5.1 l 16.394,0 c 3.249,-1.23 6.784,-3.08 10.623,-5.53 z m -32.191,0.25 0.049,0.08 -0.03,-0.05 -0.019,-0.03 z m 32.27,-0.3 0.316,-0.2 -0.2,0.13 -0.116,0.07 z m 0.501,-0.32 0.262,-0.17 -0.137,0.09 -0.125,0.08 z m 0.503,-0.33 0.229,-0.15 -0.094,0.06 -0.135,0.09 z m 0.509,-0.33 0.203,-0.14 -0.06,0.04 -0.143,0.1 z m 0.528,-0.36 0.165,-0.11 -0.03,0.02 -0.135,0.09 z m -38.205,-7.76 0.027,0.1 -0.01,-0.04 -0.017,-0.06 z m -0.133,-0.49 0.034,0.13 -0.018,-0.07 -0.016,-0.06 z m -0.124,-0.48 0.031,0.12 -0.022,-0.08 -0.009,-0.04 z m -0.268,-1.09 0.031,0.13 -0.008,-0.03 -0.023,-0.1 z m -0.123,-0.53 0.04,0.17 -0.016,-0.07 -0.024,-0.1 z m -0.112,-0.51 0.039,0.18 -0.022,-0.1 -0.017,-0.08 z m -0.109,-0.5 0.034,0.16 -0.025,-0.12 -0.009,-0.04 z m 48.172,-20.14 0.731,-0.11 -0.018,0.01 -0.713,0.1 z m 0.928,-0.14 0.537,-0.08 -0.044,0.01 -0.493,0.07 z m 0.706,-0.11 0.575,-0.09 -0.085,0.02 -0.49,0.07 z m 0.656,-0.1 c 3.16,-0.53 6.197,-1.17 9.172,-1.97 l 0.015,0.01 c -2.919,0.78 -5.982,1.43 -9.187,1.96 z M 116.528,2050.6 c -61.7974,12.32 -95.7845,21.87 -117.135422,19.65 l -0.203125,-1051.62 1.063776,-0.89 0.159531,53.22 c 39.05504,-18.95 70.43754,-21.18 94.14744,-6.7 25.2368,0.26 61.8528,79.47 103.2358,44.22 6.51,-7.8 41.824,-6.93 44.182,-0.39 -0.237,14.89 14.337,44.65 19.537,45.79 l -14.258,6.77 c -4.741,-2.22 -8.396,-5.98 -10.963,-11.3 -7.602,-0.95 -9.534,-4.41 -5.795,-10.38 -6.071,-3.97 -10.505,-3.34 -13.302,1.89 -6.241,17.24 -16.06,29.75 -29.459,37.52 -2.914,11.84 -12.773,27.28 -26.178,46.36 6.3,9.26 9.618,15.09 9.297,19.27 0.295,-6.12 -16.068,-4.29 -23.072,-10.61 -8.223,-13.75 -8.9,-15.02 -12.815,-22.4 -10.645,-11.5 -22.129,-9.97 -35.4622,20.23 -2.1025,11.6 -8.3721,23.5 -17.519,29.67 -20.28,13.67 1.9399,126.85 -5.7382,144.01 0,0 -17.7541,125.18 -12.1511,146.01 -22.328,95.21 -0.3945,134.22 39.4435,203.61 l -57.2836,102.66 c -20.1259,88.35 7.856,121.78 93.4846,104.39 24.342,-6.37 71.617,-18.73 71.617,-18.73 31.066,24.53 48.08,21.62 60.517,-6.76 0,0 11.205,-5.1 17.163,-6.34 0.847,11.96 -0.108,2.56 -12.513,15.83 7.125,13.53 4.993,20.99 -6.396,22.38 l -19.885,84.46 -19.354,11.19 c 6.741,4.54 7.052,10.86 0.932,18.95 -18.826,-39.44 -40.264,-23.83 -59.061,13.79 -14.583,-12.16 -32.05,-50.57 -56.236,-45.75 z"
           style="fill:none;stroke:#000000;stroke-width:1.33000004px" /><path
           inkscape:connector-curvature="0"
           id="the-golden-sound"
           d="m 103.543,1754.53 -57.2836,102.66 c -20.1259,88.35 7.856,121.78 93.4846,104.39 24.342,-6.37 71.617,-18.73 71.617,-18.73 31.066,24.53 48.08,21.62 60.517,-6.76 0,0 10.274,-4.68 16.379,-6.16 6.23,-11.19 7.343,-21.88 3.341,-32.06 4.982,-2.36 10.744,-2.69 17.285,-0.97 -5.293,-1.65 -11.12,-1.99 -17.483,-1.01 1.467,-21.81 -3.42,-32.5 -22.286,-18.68 -17.416,-2.74 -33.91,-2.3 -45.964,13.41 l -32.281,14.88 c 19.172,-13.61 25.49,-28.73 18.953,-45.37 21.015,7.68 33.713,-4.62 42.63,-26.01 9.741,2.15 19.473,-3.77 29.196,-17.76 11.786,4.34 21.369,2.01 28.751,-6.98 -6.912,2.88 -14.497,4.47 -22.453,4.47 -32.312,0 -58.507,-26.2 -58.507,-58.51 0,-32.31 26.195,-58.51 58.507,-58.51 20.111,0 37.852,10.15 48.383,25.6 l 5.321,-21.26 c 12.186,0.65 20.127,-5.02 18.727,-24.61 20.69,-24.01 13.505,-41.89 -12.753,-55.59 l 5.901,-15.74 29.44,-8.7 c 14.376,12.68 27.337,18.15 37.185,7.77 l 15.74,-2.72 c 9.654,6.45 20.444,3.26 32.372,-9.57 l 20.973,2.34 c -0.034,-0.5 -0.061,-1.01 -0.079,-1.53 8.044,14.56 22.53,8.07 39.945,-7.97 16.901,-4.29 26.111,-15.52 27.63,-33.71 14.166,6.7 22.673,3.91 25.52,-8.35 -1.925,0.62 -68.556,-25.42 -81.981,-6.56 -30.448,-4.49 -49.782,1.02 -58.002,16.53 -35.455,-0.17 -53.869,4.18 -78.566,27.05 -50.412,15.46 -74.973,50.62 -106.864,39.3 -36.161,24.41 -78.449,17.94 -119.809,77.6 l -33.486,57.82 z"
           style="fill:none;stroke:#000000;stroke-width:1.33000004px" /><path
           inkscape:connector-curvature="0"
           id="west-summer-sea"
           d="m 451.796,2697.62 c 5.274,-2.47 11.173,-4.05 17.749,-4.36 l 7.164,-12.37 22.623,-10.75 -0.871,-4.85 c 1.717,-2.27 3.312,-4.61 4.653,-6.87 l 14.902,0.63 c -4.23,9.81 -7.674,12.85 -10.942,14.49 -3.485,14.78 -8.791,27.81 -15.92,39.12 12.192,9.11 13.568,20.92 4.127,35.45 -3.569,15.1 -3.059,29.46 0.24,43.32 l 36.043,23.82 c 12.677,-16.06 24.997,-14.2 37.155,-4.2 6.736,-4.68 13.861,-8.08 23.715,-2.48 28.646,5.19 58.395,-7.48 89.248,-38.03 6.597,10.7 16.912,16.37 28.918,19.76 l 10.886,8.01 c 15.356,3.86 18.128,16.03 -2.743,21.63 -35.524,-2.57 -45.191,7.52 -32.564,28.08 12.113,19.72 46.197,12.15 46.197,12.15 34.42,-13.56 68.291,-27.83 -9.186,61.89 l 2.703,52.34 -725.307714,0 -1.192708,-904.15 c 21.350922,2.22 55.338022,-7.33 117.135422,-19.65 24.186,-4.82 41.653,33.59 56.236,45.75 18.797,-37.62 40.235,-53.23 59.061,-13.79 l 0.217,0.44 c 4.477,9.28 3.719,15.97 -2.274,20.06 18.023,10.49 23.663,24.75 2.057,47.29 7.278,1.25 14.671,1.97 22.192,2.11 -8.119,0.62 -16.409,0.89 -24.872,0.82 24.096,18.7 37.406,37.93 34.953,58.04 l -0.258,0.03 c -4.779,10.06 -12.579,16.52 -23.401,19.37 -24.495,6.7 -37.757,16.82 -26.307,34.49 7.481,9.68 10.373,17.05 6.761,21.96 -3.613,4.91 -13.729,7.35 -32.266,7.16 -36.958,-4.44 -52.844,17.69 -54.313,58 -45.8034,22.54 -73.2628,54.91 -73.911,101.67 l -6.7448,51.75 c -18.8258,36.02 -19.3348,66.81 6.9271,89.94 17.9583,21.68 17.2604,41.86 3.8437,64.66 27.0873,14.78 33.9534,38.04 11.2657,73.69 l 2.6582,2.96 -12.4864,0 0,146.02 104.8545,0 18.078,-23.22 0.547,0.61 c 30.215,38.42 59.471,24.85 88.291,-12.33 10.73,-18.65 14.449,-36.34 15.73,-51.93 14.574,-2.34 29.447,-5.81 44.979,-11.76 16.385,12.38 37.243,14.51 62.573,6.4 32.107,14.35 40.187,4.78 24.239,-28.7 46.452,-7.19 3.019,-35.25 26.638,-64.47 z"
           style="fill:none;stroke:#000000;stroke-width:1.33000004px" /><path
           inkscape:connector-curvature="0"
           id="redwyne-straights"
           d="m 451.796,2697.62 c -23.619,29.22 19.814,57.28 -26.638,64.47 15.948,33.48 7.868,43.05 -24.239,28.7 -25.33,8.11 -46.188,5.98 -62.573,-6.4 -15.532,5.95 -30.405,9.42 -44.979,11.76 -1.281,15.59 -5,33.28 -15.73,51.93 -28.82,37.18 -58.076,50.75 -88.291,12.33 l -0.547,-0.61 37.31,-47.92 c 4.55,2.05 10.927,1.22 19.13,-2.49 8.578,-7.89 6.841,-14.18 3.63,-20.24 -11.514,0.69 -20.08,-9.41 -25.698,-30.29 l -17.969,2.97 c -8.07,-5.62 -8.055,-13.59 -6.885,-21.9 -10.728,-14.84 -20.509,-25.07 -23.672,-2.93 l -96.2921,0 -2.6582,-2.96 c 22.6877,-35.65 15.8216,-58.91 -11.2657,-73.69 13.4167,-22.8 14.1146,-42.98 -3.8437,-64.66 -26.2619,-23.13 -25.7529,-53.92 -6.9271,-89.94 L 60.403,2454 c 0.6482,-46.76 28.1076,-79.13 73.911,-101.67 1.469,-40.31 17.355,-62.44 54.313,-58 18.537,0.19 28.653,-2.25 32.266,-7.16 3.612,-4.91 0.72,-12.28 -6.761,-21.96 -11.45,-17.67 1.812,-27.79 26.307,-34.49 10.822,-2.85 18.622,-9.31 23.401,-19.37 l 0.258,-0.03 -0.013,0.15 6.604,9.56 c 24.996,-6.72 39.757,-0.71 44.284,18.04 37.534,2.92 52.372,12.36 44.513,28.31 48.671,28.72 44.941,44.55 -11.19,47.46 l -12.312,8.72 c 28.508,17.22 38.163,29.69 28.963,37.43 11.925,5.8 17.15,11.58 15.674,17.36 -0.303,0.06 -0.604,0.12 -0.906,0.19 -0.187,-6.48 -4.058,-12.47 -16.031,-17.42 l -13.959,7.18 c -21.383,5.8 -35.125,3.53 -41.227,-6.8 l -0.373,-8.64 -11.367,8.04 c -0.652,6.52 -4.688,11.79 -12.108,15.79 -8.478,14.27 -2.8,12.03 -13.07,29.4 4.512,11.99 1.391,21.98 -9.365,29.99 -13.804,9.15 -24.177,9.37 -32.99,5.55 l -36.174,47.52 c 8.218,12.74 2.32,22.37 -9.996,30.58 12.103,26.12 34.382,42.12 18.771,73.22 l 28.51,9.76 c 32.652,-25.09 62.048,-38.42 75.906,-33.77 3.067,-0.21 6.018,-0.51 8.854,-0.9 -2.421,0.53 -4.927,1.03 -7.518,1.49 5.195,24.94 -8.236,50.63 -48.891,77.4 l 38.487,58.35 c 7.82,1.19 16.08,3.5 25.306,8.25 0.205,10.72 8.409,14.03 7.645,33.83 l 12.699,-2.86 c 10.764,-11.82 21.81,-12.27 33.139,-1.37 l 7.055,-6.79 c 6.289,-15.15 19.32,-15.66 35.414,-9.52 9.973,-11.79 20.174,-23.16 33.364,-29.2 z"
           style="fill:none;stroke:#000000;stroke-width:1.33000004px" /><path
           inkscape:connector-curvature="0"
           id="east-summer-sea"
           d="m 708.31,2789.62 0.119,0.03 0.26,0.08 0.128,0.04 0.367,0.11 -0.331,-0.1 -0.036,-0.01 -0.033,-0.01 -0.095,-0.03 -0.182,-0.05 -0.078,-0.03 -0.06,-0.02 -0.059,-0.01 z m -2.609,-0.87 -0.06,-0.03 -0.307,-0.11 c -0.28,-0.1 -0.56,-0.2 -0.837,-0.3 l -0.266,-0.1 -0.135,-0.06 -0.016,0 -0.02,-0.01 -0.178,-0.07 -0.189,-0.07 -0.028,-0.01 -0.019,-0.01 -0.112,-0.04 -0.25,-0.1 -0.031,-0.02 -0.011,0 0.042,0.02 0.362,0.14 0.047,0.02 0.367,0.14 0.036,0.01 0.401,0.16 0.418,0.15 0.419,0.15 0.367,0.14 z m -11.589,-5.59 -0.229,-0.15 -0.218,-0.14 -0.019,-0.02 -0.058,-0.04 -0.141,-0.09 -0.032,-0.02 -0.061,-0.04 -0.124,-0.09 -0.028,-0.02 -0.018,-0.01 -0.058,-0.04 -0.112,-0.08 -0.037,-0.02 -0.023,-0.02 -0.053,-0.03 -0.101,-0.07 -0.047,-0.04 -0.027,-0.02 -0.048,-0.03 -0.092,-0.07 -0.057,-0.04 -0.031,-0.02 -0.042,-0.03 -0.083,-0.06 -0.067,-0.05 -0.034,-0.02 -0.037,-0.03 -0.074,-0.05 -0.077,-0.06 -0.037,-0.02 -0.031,-0.03 -0.066,-0.05 -0.088,-0.06 -0.039,-0.03 -0.026,-0.02 -0.057,-0.04 -0.1,-0.08 -0.041,-0.03 -0.021,-0.01 -0.047,-0.04 -0.112,-0.08 -0.042,-0.03 -0.016,-0.02 -0.038,-0.03 -0.125,-0.09 -0.042,-0.03 -0.011,-0.01 -0.029,-0.03 -0.14,-0.11 -0.039,-0.03 -0.028,-0.02 -0.159,-0.12 0.179,0.14 0.047,0.03 0.169,0.14 0.053,0.04 0.163,0.12 0.058,0.05 0.159,0.12 0.062,0.04 0.157,0.12 0.065,0.05 0.154,0.11 0.068,0.05 0.151,0.11 0.071,0.05 0.15,0.11 0.073,0.05 0.149,0.11 0.075,0.05 0.148,0.11 0.076,0.05 0.149,0.1 0.076,0.05 0.152,0.11 0.074,0.05 0.16,0.1 0.066,0.05 0.197,0.13 0.029,0.02 0.232,0.15 z m -4.878,-3.68 -0.156,-0.14 -0.175,-0.15 0.326,0.29 0.005,0 z m -3.314,-3.27 -0.012,-0.01 -0.065,-0.07 -0.12,-0.14 -0.024,-0.02 -0.023,-0.03 -0.067,-0.08 -0.093,-0.1 -0.036,-0.04 -0.034,-0.04 -0.062,-0.07 -0.074,-0.09 -0.047,-0.06 -0.045,-0.05 -0.053,-0.06 -0.059,-0.07 -0.06,-0.07 -0.054,-0.07 -0.043,-0.05 -0.046,-0.05 -0.073,-0.09 -0.062,-0.08 -0.032,-0.04 -0.034,-0.04 -0.091,-0.11 -0.065,-0.08 -0.021,-0.03 -0.023,-0.02 -0.176,-0.23 0.199,0.25 0.086,0.11 0.125,0.15 0.094,0.12 0.119,0.14 0.097,0.12 0.119,0.14 0.098,0.11 0.121,0.15 0.096,0.11 0.129,0.14 0.09,0.11 0.144,0.16 0.077,0.08 z m -3.159,-4.01 -0.023,-0.03 -0.013,-0.02 0.036,0.05 z m 542.039,-71.21 c -22.23,-3.59 -37.76,-10.07 -49.13,-18.36 11.93,10.2 27.17,17.35 49.13,18.36 z m 85.96,-80.85 c 3.26,-8.12 8.55,-15.93 15.89,-23.43 -13.55,9.65 -23.56,11.58 -28.4,2.22 -16.64,-11.3 -2.6,-24.56 -7.04,-40.42 7.77,-5.75 10.62,-13.23 8.54,-22.45 -15.27,-29.19 6.19,-46.4 7.79,-59.32 -14.48,-10.79 -20.55,-20.5 -17.2,-34.92 -26.04,10.07 -62.15,10.9 -71.13,-17.45 -12.5,-17.04 -12.05,-28.35 1.35,-33.96 7.57,-25.48 18.08,-40.56 35.06,-32.73 l 14.83,-6.79 c 1.92,-14.72 20.2,-26.16 42.66,-39.71 9.14,11.18 22.56,-2.81 36.59,-9.22 28.43,11.87 23.18,0.97 63.31,-10.71 33.45,4.81 52.48,-9.83 84.84,2.41 l -3.17,681.48 -768.902,-2.96 -2.588,-50.12 c 77.477,-89.72 43.606,-75.45 9.186,-61.89 0,0 -34.084,7.57 -46.197,-12.15 -12.627,-20.56 -2.96,-30.65 32.564,-28.08 20.871,-5.6 18.099,-17.77 2.743,-21.63 l 0.004,-0.09 c 0.369,-7.72 19.14,-9.99 46.295,-9.79 5.777,3.43 14.583,3.01 26.418,-1.26 l 2.721,-6.81 -6.514,-12.61 c -11.312,-7 -17.919,-13.35 -21.603,-19.39 l 0.043,-0.01 c 3.804,6.28 11.006,12.57 23.906,19.23 l 4.812,12.72 c 23.88,-15.06 47.651,-9.05 71.348,11.37 11.279,-6.81 22.096,-9.93 32.451,-9.39 l 15.922,-39 c 25.072,8.16 47.261,17.08 63.109,27.65 18.299,-9.51 36.472,-16.05 54.072,-8.29 l 11.87,-12.72 c 28.15,17.69 57.8,25.18 90.75,10.22 l 2.83,7.55 6.43,-12.71 c 8.92,7.52 18.37,11.02 29.01,5.66 8.36,-20.98 19.27,-29.26 32.73,-24.83 13.28,0.66 19.9,-13.24 23.44,-33.85 l 0.34,0.04 c 7.36,-7.84 14.8,-9.7 22.32,-5.57 -5.35,-15.19 2.8,-30.76 27.27,-46.78 0.43,0.38 0.86,0.73 1.3,1.04 -2.68,6.71 -4.16,14.03 -4.16,21.7 0,32.31 26.19,58.51 58.51,58.51 32.31,0 58.5,-26.2 58.5,-58.51 0,-32.31 -26.19,-58.51 -58.5,-58.51 -9.48,0 -18.44,2.26 -26.35,6.26 z m -31.06,-309.57 c -3.21,3.04 -6.19,4.57 -8.94,4.57 l 2.49,-1.69 6.45,-2.88 z m -569.601,479.58 -0.061,-0.01 -0.06,-0.02 -0.08,-0.02 -0.182,-0.06 -0.097,-0.03 -0.033,-0.01 -0.037,-0.01 -0.329,-0.1 0.366,0.11 0.13,0.04 0.262,0.08 0.121,0.03 z m -27.633,-18.38 0.039,0.06 -0.018,-0.03 -0.021,-0.03 z m -0.48,-0.74 0.022,0.03 0.214,0.34 0.024,0.03 -0.007,-0.01 -0.017,-0.02 -0.103,-0.16 -0.111,-0.18 -0.014,-0.02 -0.008,-0.01 z"
           style="fill:none;stroke:#000000;stroke-width:1.33000004px" /><path
           inkscape:connector-curvature="0"
           id="sea-of-dorne"
           d="m 1297.9,2598.67 c -16.01,-11.3 -2.29,-24.45 -6.69,-40.16 7.77,-5.75 10.62,-13.23 8.54,-22.45 -15.27,-29.19 6.19,-46.4 7.79,-59.32 -14.48,-10.79 -20.55,-20.5 -17.2,-34.92 -26.04,10.07 -62.15,10.9 -71.13,-17.45 l -3.7,13.21 c -13.22,1.12 -24.75,3.44 -32.58,8.41 l -14.83,-2.96 c 10.43,-16.06 0.53,-20.23 -18.63,-19.01 l -13.12,-3.34 c -7.05,-17.66 -17.99,-18.57 -32.84,-2.72 -21.19,-11.98 -39.92,-13.95 -55.08,-1.29 -7.79,-3.13 -12.34,-6 -17.4,-3.61 -5.95,0.03 -10.39,-3.79 -13.33,-11.48 11.41,-21.05 -19.496,-33.29 -39.616,-26.29 3.714,-11.35 5.931,-21.79 6.775,-31.37 -5.869,17.46 -8.52,31.49 -6.672,40.72 -5.704,6.02 -9.154,13.56 -7.644,24.44 l -14.199,7.83 c -11.463,-17.15 -24.34,-11.71 -38.397,0.22 l -20.752,-12.35 -34.082,16.07 9.035,17.88 -3.091,21.63 c -5.021,1.87 -8.932,6.58 -11.996,11.88 -17.586,4.66 -21.579,11.17 -11.979,19.54 -14.389,3.92 -22.586,11.72 -17.16,28.04 -7.554,7.98 -16.35,15.96 -20.125,28.16 -23.07,-4.66 -32.343,-2.23 -41.709,11.65 l 0.082,0.03 c -0.15,13.63 5.625,15.72 17.326,6.27 10.414,3.41 18.732,3.9 24.955,1.48 10.858,6.16 20.46,3.29 29.49,-3.68 11.124,9.35 25.621,13.78 47.539,7.4 6.354,4.33 15.573,5.85 27.659,4.58 12.294,8.15 22.489,4.02 31.73,-5.69 2.399,5.92 6.886,10.79 13.459,14.59 -1.667,7.9 -0.82,18.92 -1.274,29.21 1.5,-8.52 1.934,-18.71 2.051,-29.41 17.863,6.9 35.763,8.4 53.705,4.5 22.58,29 46.73,28.45 71.96,7.66 17.28,11.8 35.93,20.81 58.88,21.11 7.64,8.32 15.55,4.61 23.59,-4.57 19.03,2.98 34.43,-3.93 46.19,-20.74 14.56,-3.08 26.15,-9.96 31.23,-25.17 l 21.97,-9.02 c 4.41,15.74 14.82,29.23 31.27,40.49 l 0.16,0.12 0.19,0.14 -0.35,-0.26 z"
           style="fill:none;stroke:#000000;stroke-width:1.33000004px" /><path
           inkscape:connector-curvature="0"
           id="shipbreaker-bay"
           d="m 1449.68,1944.7 c -1.8,30.69 -27.26,55.02 -58.4,55.02 -32.31,0 -58.51,-26.2 -58.51,-58.51 0,-7.06 1.25,-13.82 3.54,-20.08 l -94.29,-122.53 c -18.88,-7.9 -9.52,-13.21 12.69,-17.35 l 9.75,0 58.08,-82.59 142.98,0 0,246.04 -15.84,0 z m -302.7,-174.84 c -4.52,-13.75 10.43,-17.89 38.99,-15.37 l 1.53,-15.53 38.21,-1.74 c 0.9,-9.86 8.5,-18.97 22.77,-27.34 -9.41,-5.39 -12,-11.52 -11.47,-17.97 12.61,0.59 23,-7.26 31.2,-23.54 -2.57,-6.37 -1.2,-15.33 4.09,-26.86 l -3.42,0.2 c 6.52,-9.7 14.37,-18.23 26.38,-23.09 4.99,0.76 9.89,5.79 14.75,12.75 1.32,-12.04 8.12,-16.38 20.41,-13.03 -2.89,-18.92 -0.78,-31.24 12.33,-29.08 4.27,16.65 11.59,16.44 21.97,-0.64 9.22,-33.65 26.46,-43.28 49.2,-36.48 31.76,3.62 60.16,9.83 82.9,20.4 l 2.04,760.3 -1.2,-0.05 0.19,-39.13 c -32.36,-12.24 -51.39,2.4 -84.84,-2.41 -40.13,11.68 -34.88,22.58 -63.31,10.71 -13.97,6.39 -27.34,20.29 -36.49,9.35 l -0.1,-0.13 c -14.06,-0.83 -20.5,-6.19 -23.48,-13.61 -3.52,5.74 -6.84,10.07 -9.93,13 l -6.45,2.88 -2.49,1.69 c -2.7,0.01 -5.17,-1.45 -7.41,-4.37 -8.57,14.85 -17.63,19.52 -27.79,1.83 l -7.53,-1.8 c 2.46,-6.46 3.8,-13.47 3.8,-20.79 0,-32.32 -26.19,-58.51 -58.5,-58.51 -32.01,0 -58.01,25.7 -58.5,57.59 -30.01,4.71 -35.31,-4.41 -15.89,-27.36 -24.08,-7.49 -24.91,-15.26 -2.48,-23.31 8.65,-11.28 18.68,-13.91 30.1,-7.87 l 9.88,-2.37 c -0.91,-7.14 3.04,-11.63 11.83,-13.47 6.28,19.11 12.96,19.51 20.03,1.22 l 8.26,-14.44 -1.87,-23.44 11.5,-6.55 c -6.59,-4.38 -8.53,-10.89 -5.82,-19.54 -12.33,-8.75 -19.33,-18.9 -20.99,-30.46 -3.06,-0.3 -5.95,-0.13 -8.53,0.51 l -0.07,-1.86 c 15.74,-5.15 28.27,-4.39 37.78,2.19 l 28.97,-2.96 c -3.02,-11.32 2.52,-17.15 16.61,-17.51 -13.32,-5.75 -16.86,-12.69 1.12,-22.29 -10.95,-16.49 -7.24,-25.55 11.14,-27.16 l -9.54,-6.36 c -14.32,11.48 -24.98,8.75 -31.95,-8.2 -2.28,14.17 -12.24,18.82 -29.88,13.93 6.78,-13.28 2.76,-29.12 -6.16,-46.13 l 28.12,-2.32 c -5.09,-28.31 26.63,-58.38 40.87,-96.87 -11.53,-14.22 -19.79,-26.91 -27.94,-39.66 l -1.6,-5.48 c 2.74,-9.3 -9.33,-17.52 -20.17,-26.51 -18.75,1.27 -25.85,-10.3 -22.41,-34.05 1.93,-14.68 -4.01,-24.72 -17.81,-30.11 l -0.95,-0.8 z"
           style="fill:none;stroke:#000000;stroke-width:1.33000004px" /><path
           inkscape:connector-curvature="0"
           id="blackwater-bay"
           d="m 1209.92,1866.81 -1.94,-3.02 0.65,23.04 c 11.35,14.02 15.3,28.13 2.97,42.46 -11,19.65 -24.99,32.19 -41.96,37.61 -2.9,12.15 -10.43,18.53 -22.59,19.14 -16.85,17.4 -27.14,22.73 -34.45,22.57 l -0.4,2.01 -4.35,-0.98 3.79,-4.55 -7.5,-27.79 c -25.8,11.48 -51.2,18.48 -76.01,18.94 -26.55,16.48 -46.682,21.63 -52.714,1.86 -18.84,13.21 -20.896,7.06 -6.167,-18.46 -21.476,-18.71 -14.854,-30.04 19.868,-33.99 11.393,-12.71 26.153,-19.26 44.263,-19.64 l -4.79,16.43 15,-11.42 c -2.41,-22.94 8.74,-34 26.05,-39.68 -6.08,-5.73 -7.98,-11.88 -5.71,-18.43 l -27.12,6.62 -22.21,-0.38 1,-3.28 c 7.92,-0.03 14.57,0.58 20.17,1.72 l 27.59,-46.54 c 20.18,-11.87 24.6,-20.89 18.37,-32.53 l 31.14,-24.79 c 5.68,-10.18 12.07,-10.01 19.15,0.51 l 16.43,-0.84 c -0.65,-1.29 -1.17,-2.51 -1.47,-3.54 l 0.95,0.8 c 13.8,5.39 19.74,15.43 17.81,30.11 -3.44,23.75 3.66,35.32 22.41,34.05 10.84,8.99 22.91,17.21 20.17,26.51 l 1.6,5.48 z"
           style="fill:none;stroke:#000000;stroke-width:1.33000004px" /><path
           inkscape:connector-curvature="0"
           id="the-shivering-sea"
           d="m 1189.04,947.098 c 2.3,-1.265 7.6,-1.839 13.57,-1.926 -6.08,-0.101 -10.84,0.427 -13.57,1.926 z m -5.21,-16.546 c 0.24,0.004 0.49,0.006 0.74,0.006 l -0.38,-10e-4 -0.36,-0.005 z m 1.12,0.003 -0.38,0.003 0.21,-10e-4 0.17,-0.002 z m -1.16,-0.004 -0.35,-0.009 -0.35,-0.012 c 0.23,0.009 0.46,0.016 0.7,0.021 z m -0.75,-0.023 -0.31,-0.015 0.19,0.009 0.12,0.006 z m -0.72,-0.04 -0.28,-0.02 0.12,0.009 0.16,0.011 z m -0.68,-0.054 -0.28,-0.028 0.07,0.008 0.21,0.02 z m -0.36,-0.037 -0.26,-0.029 0.17,0.02 0.09,0.009 z m -0.68,-0.082 -0.22,-0.031 0.11,0.016 0.11,0.015 z m -0.64,-0.097 -0.21,-0.037 0.07,0.013 0.14,0.024 z m -0.3,-0.053 -0.22,-0.042 0.16,0.031 0.06,0.011 z m -0.28,-0.052 -0.25,-0.052 0.04,0.008 0.21,0.044 z m -0.35,-0.073 -0.18,-0.04 0.11,0.024 0.07,0.016 z m -0.59,-0.14 -0.17,-0.043 0.07,0.017 0.1,0.026 z m -0.26,-0.069 -0.2,-0.055 0.16,0.045 0.04,0.01 z m -0.3,-0.083 -0.17,-0.053 0.03,0.012 0.14,0.041 z m -0.27,-0.084 -0.15,-0.048 0.09,0.031 0.06,0.017 z m -0.55,-0.183 -0.13,-0.05 0.06,0.024 0.07,0.026 z m -0.23,-0.085 -0.19,-0.073 0.17,0.064 0.02,0.009 z m -0.28,-0.112 -0.14,-0.056 0.04,0.017 0.1,0.039 z m -0.23,-0.097 -0.13,-0.057 0.09,0.041 0.04,0.016 z m -0.24,-0.104 -0.16,-0.076 0.02,0.009 0.14,0.067 z m -4.71,-5.017 -0.01,-0.021 0.01,0.01 0,0.011 z m -0.11,-0.328 -0.01,-0.031 0.01,0.018 0,0.013 z m -0.04,-0.162 -0.01,-0.026 0,0.007 0.01,0.019 z m -0.05,-0.178 -0.01,-0.037 0,0.026 0.01,0.011 z m -0.04,-0.154 -0.01,-0.049 0,0.02 0.01,0.029 z m -16.46,-4.232 0.11,0.286 -0.01,-0.013 -0.1,-0.273 z m -0.17,-0.461 -0.01,-0.026 -0.55,-1.486 0.03,0.06 0.53,1.452 z m -0.65,-1.77 -0.2,-0.535 0.04,0.09 0.16,0.445 z m -0.3,-0.817 -0.19,-0.519 0.04,0.116 0.15,0.403 z m -0.4,-1.109 -0.1,-0.295 0.07,0.213 0.03,0.082 z m -0.12,-0.347 -0.14,-0.378 0.09,0.246 0.05,0.132 z m -0.29,-0.819 0.14,0.411 -0.14,-0.412 0,10e-4 z M 1038.8,700.234 c -5.89,-4.104 -11.74,-10.08 -17.57,-16.997 5.12,7.569 10.98,13.235 17.57,16.997 z m 40.42,-103.135 0.11,5.874 c 3.14,5.599 8.12,7.058 14.94,4.379 -0.26,0.329 -0.5,0.661 -0.74,0.997 -6.02,1.993 -10.91,0.39 -14.66,-4.808 l -0.07,-6.201 0.42,-0.241 z m -38.31,-210.913 c 3.54,2.899 7.19,5.757 11.08,8.136 -2.99,-1.447 -5.95,-3.133 -8.87,-5.048 l -2.2,-3.046 -0.01,-0.042 z m 455.87,590.394 0,-20.927 c -55.54,-9.08 -150.43,24.63 -150.43,24.63 -11.13,-5.062 -35.23,-4.846 -61.96,-10.747 0,0 -11.58,-26.616 -24.53,-25.952 -13.59,29.447 -13.26,28.879 -45.89,1.943 -2.1,-0.157 -4.3,-0.269 -6.5,-0.325 -11.89,-1.87 -17,-6.965 -15.32,-15.285 -2.32,0.349 -4.46,0.556 -6.4,0.619 l 0,0 -0.13,0.004 -0.25,0.007 -0.01,0 c -0.13,0.004 -0.27,0.006 -0.4,0.008 l 0.4,-0.008 0.26,-0.007 0.13,-0.004 -14.67,-7.488 c -0.23,-0.994 -0.33,-2.086 -0.29,-3.276 l -5.94,0.098 -12.11,-6.181 c -2.18,-6.373 -3.96,-13.818 -1.59,-22.075 5.28,-1.858 8.96,-4.535 9.14,-9.016 -8.53,0.593 -13.02,-6.398 -13.46,-20.974 l 8.71,0.355 -4.47,-12.166 -12.51,0.389 c -6.41,-7.372 -11.05,-17.212 -9.02,-25.492 l -8.11,-2.073 2.6,-7.072 c -14.79,4.074 -24.97,-8.597 -33.07,-28.879 -16.71,-0.915 -28.11,-4.129 -38.59,-5.476 10.56,0.862 22.77,3.439 39.4,3.157 0.07,-8.309 9.73,-12.16 28.98,-11.555 -7.05,-8.251 -5.38,-14.247 -2.47,-19.919 -20.49,-2.885 -30.59,-11.664 -30.29,-26.336 -4.8,2.494 -7.55,0.84 -8.24,-4.964 l -0.5,-18.784 c -7.48,2.264 -14.46,3.251 -20.95,2.96 1.5,-0.277 3.01,-0.734 4.52,-1.386 l 14.32,-2.223 17.46,2.852 -10.98,-8.905 -2.22,-12.847 12.13,-1.483 c -11.59,-0.952 -14.67,-9.153 -9.24,-24.603 l 5.25,-10.854 c 5.55,16.126 18.89,7.138 28.5,17.623 5.42,-0.047 10.83,0.559 16.18,5.74 1.61,6.642 4.14,11.106 7.59,13.393 9.02,0.864 14.31,-2.407 11.35,-14.773 -0.53,-8.56 3.23,-13.901 9.94,-17.041 l 25.12,0.185 11.12,-27.158 c -5.18,-13.425 -2.71,-22.101 4.99,-27.528 -1.5,-5.754 -0.28,-9.586 3.66,-11.496 -5.03,-17.064 -5.59,-34.039 -0.74,-50.91 12.19,7.068 18.96,17.779 17.84,33.813 10.59,3.493 20.11,6.988 28.07,10.487 l -0.55,14.19 9.82,8.155 6.05,-15.431 c -5.24,-7.38 -5.01,-15.733 -1.04,-24.751 9.46,-2.763 12.61,-11.377 12.9,-22.649 6.78,-3.504 12.84,-14.303 18.41,-30.094 l -4.81,-10.496 c 5.72,-3.749 8.28,-10.46 7.65,-20.133 -8.47,-1.461 -8.45,-7.702 -4.57,-16.115 -11.85,-2.003 -14.24,-12.353 -8.77,-29.619 -7.53,-5.646 -11.41,-11.289 -11.66,-16.931 -20.19,6.195 -36.77,9.302 -48.08,7.896 -7.06,17.897 -21.23,19.471 -38.63,13.625 -0.09,-5.54 0,-8.523 -3.78,-9.692 -10.73,1.043 -16.97,-4.943 -21.17,-14.125 -13.16,3.901 -22.18,0.099 -29.09,-7.599 -16.49,5.067 -26.96,1.759 -31.44,-9.926 -11.08,4.727 -21.67,6.388 -31.84,5.341 2.54,-0.09 5.19,-0.479 7.98,-1.221 -3.17,-5.015 -3.7,-11.68 -1.61,-19.994 -3.57,-7.553 -5.51,-17.5 -3.83,-32.711 -5.85,-10.916 -8.82,-20.969 -5.42,-29.121 -6.6,-3.538 -7.07,-8.161 -6.67,-12.94 -4.95,-6.679 -5.56,-12.419 -4.2,-17.732 -5.38,2.712 -8.59,1.201 -9.64,-4.535 -14.43,-2.619 -19.41,-18.917 -14.93,-48.893 -4.34,-1.087 -7.38,-5.239 -9.12,-12.457 l 9.79,-32.532 L 938.378,39.6888 C 927.344,21.7933 883.556,30.6266 837.097,-1.46745 l 662.423,-0.35937 3.37,977.11682 -6.11,1.29 z"
           style="fill:none;stroke:#000000;stroke-width:1.33000004px" /><path
           inkscape:connector-curvature="0"
           id="the-narrow-sea"
           d="m 1237.14,1696 0,0.04 0,-0.01 0,-0.03 z m -0.05,-0.31 0.01,0.06 0,-0.01 -0.01,-0.05 z m -0.04,-0.3 0.01,0.07 0,-0.01 -0.01,-0.06 z m -0.03,-0.31 0.01,0.09 0,-0.01 -0.01,-0.08 z m -0.02,-0.31 0,0.11 0,-0.02 0,-0.09 z m -0.02,-0.3 0,0.11 0,-0.01 0,-0.1 z m -0.02,-0.31 0.01,0.13 -0.01,-0.01 0,-0.12 z m -0.01,-0.3 0,0.13 0,-0.01 0,-0.12 z m 0,-0.31 0,0.15 0,-0.01 0,-0.14 z m 0,-0.3 0,0.15 0,-0.01 0,-0.14 z m 0,-0.31 0,0.16 0,-0.01 0,-0.15 z m 0.01,-0.31 0,0.17 0,0 0,-0.17 z m 0.02,-0.32 -0.01,0.2 0,-0.01 0.01,-0.19 z m -173.17,-56.71 -0.03,-0.17 -33.46,-13.91 c 0.1,0.39 0.19,0.78 0.28,1.17 l 33.21,12.91 z m 16.35,-140.54 c 7.64,2.16 11.62,8.27 13.93,16.17 l 3.4,2.31 -5.98,-3.26 c -0.81,-7.56 -4.29,-12.41 -10.42,-14.55 -0.22,0.2 -0.44,0.39 -0.67,0.58 l -0.26,-1.25 z m -309.804,-469.95 4.598,-9.4 0.053,0.06 c 0.86,-0.07 1.728,-0.16 2.605,-0.28 -0.807,4.34 -3.226,7.55 -7.256,9.62 z m 226.483,-41.22 c 0.074,1.066 0.048,2.132 -0.077,3.198 15.388,7.713 28.298,8.343 39.848,5.049 -14.37,3.413 -27.67,1.897 -39.505,-6.367 -0.075,-0.642 -0.164,-1.269 -0.266,-1.88 z m -12.851,-19.825 c 4.29,3.084 7.833,6.654 10.198,11.422 -2.134,-3.799 -5.536,-7.601 -10.206,-11.405 l 0.008,-0.017 z m 201.762,-33.529 c -8.57,0.282 -13.46,-2.215 -14.67,-7.488 l 14.67,7.488 z M 972.196,1090.21 c 5.458,-8.79 21.252,-12 42.164,-12.44 1.11,-8.37 5.44,-13.2 13.01,-14.48 -2.48,-6.74 0.21,-14.95 8.07,-24.64 0.15,-11.89 5.08,-17.28 10.69,-21.74 l -1.97,-27.464 c 1.28,-12.902 3.6,-25.255 12.67,-34.055 3.05,-3.06 5.23,-7.096 6.55,-12.107 -10.25,-31.598 -4.87,-41.724 16.14,-30.379 7.77,1.609 13.04,4.984 15.81,10.127 8.92,-0.294 16.8,2.584 24.2,6.904 12.42,-5.778 22.35,-6.282 26.78,4.813 6,2.695 11.57,3.479 16.7,2.351 8.71,9.873 17.39,13.206 26.03,9.998 3.73,-2.055 15.39,-2.285 24.93,-1.571 32.63,26.936 32.3,27.504 45.89,-1.943 12.95,-0.664 24.53,25.952 24.53,25.952 26.73,5.901 50.83,5.685 61.96,10.747 0,0 94.89,-33.71 150.43,-24.63 l 0.04,616.887 c -22.74,-10.57 -51.14,-16.78 -82.9,-20.4 -22.74,-6.8 -39.98,2.83 -49.2,36.48 -10.38,17.08 -17.7,17.29 -21.97,0.64 -13.11,-2.16 -15.22,10.16 -12.33,29.08 -12.29,-3.35 -19.09,0.99 -20.41,13.03 -4.86,-6.96 -9.76,-11.99 -14.75,-12.75 -12.01,4.86 -19.86,13.39 -26.38,23.09 l -5.45,0.31 c -10.5,18.02 -23.85,29.15 -40.04,33.4 -5.47,14.41 -17.5,18.48 -32.53,17.84 -6.01,11.91 -16.5,18.76 -31.44,20.57 -24.1,32.87 -28.73,14.68 -84.05,1.74 l -23.95,4.95 c -33.48,21.56 -66.313,11.18 -98.513,-31.14 l 4.634,-10.13 23.221,-0.8 c 22.478,19.01 51.978,20.1 88.508,3.26 l 7.99,4.24 c 7.28,-1.26 16.13,-6.56 26.55,-15.9 2.54,-3.89 0.73,-8.17 -5.44,-12.85 7.27,4.26 9.36,8.69 6.28,13.28 19.96,7.1 38.99,-4.83 57.37,-29.77 l 14.58,-21.74 31.29,-4.13 -25.69,-4.96 c -9.83,-9.05 -4.6,-20.85 10.93,-34.54 l -16.74,-10.95 c -40.01,-2.91 -46.42,-9.83 -3.76,-22.58 15.55,-6.19 31.96,-7.57 48.96,-5.66 l 13.66,18.61 26.52,-25.28 12.32,21.41 c 29.89,-7.55 21.29,-24.44 55.28,-32 l 15.4,-23.27 c -14.65,3.53 -27.37,2.16 -38.15,-4.11 -7.18,5.18 -13.44,4.5 -18.8,-2.05 -9.28,8.09 -18.37,7.41 -27.38,2.74 -9.84,15.82 -21.24,18.74 -33.7,12.83 -19.2,12.07 -37.51,15.72 -54.95,10.96 -23.71,10.31 -43.86,11.96 -60.46,4.94 34.02,-8.5 38.89,-27.93 91.81,-37.17 9.58,-22.89 2.19,-14.53 6.01,-35.81 l 34.93,-2.41 c 16.92,-5.93 25.32,-11.73 29.86,-17.49 -11.29,-2.67 -10.45,-11.27 -4.1,-22.56 l 13.51,6.48 c 8.18,-7.21 12.87,-13.41 22.39,-10.28 l 3.26,-19.28 c -10.46,1.95 -15.87,-0.43 -16.23,-7.15 -4.62,-7.08 0.26,-11.99 6.49,-16.59 l -14.16,6.29 c 0.04,15.02 -4.86,24.16 -14.73,21.23 -17.53,-0.3 -17.2,-13.01 -14.33,-23.94 l -16.9,0 c -2.48,-7.77 3.51,-14.9 17.97,-21.37 8.56,-0.88 12.15,-5.09 10.77,-12.63 8.67,-6.73 16.76,-10.25 24.6,-12.32 l -2.4,-9.87 7.87,-11.98 c -16.85,17.11 -31.89,26.84 -42.98,20.34 -0.25,6.96 -7.09,11.34 -20.54,13.16 -8.36,5.16 -19.88,6.59 -34.55,4.28 -11.76,9.71 -23.01,12.76 -33.16,1.19 -7.01,16.22 -13.64,16.13 -20.22,13.7 0.85,12.91 -19.9,19.81 -50.49,23.96 -1.36,1.79 -2.72,3.52 -4.07,5.2 1.03,-1.34 2.06,-2.71 3.08,-4.11 19.36,-58.33 33.39,-71.82 95.56,-77.87 15.8,-1.09 26.82,-7.55 30.84,-21.87 7.46,-4.3 12.02,-3.22 20.1,-3.32 4.65,-2.93 6.7,-7.29 6.16,-13.09 76.86,-56.78 -0.61,2.71 3.18,-11.83 l -15.51,18 c -11.41,-2.03 -18.48,0.19 -28.24,19.07 l -31.69,1.1 c 8.83,-10.98 26.06,-24.08 45.68,-34.58 -6.37,-3.99 0.33,-10.79 12.97,-18.86 -18.08,9.81 -39.54,24.53 -62.72,41.74 -10.04,19.69 -22.36,22.89 -36.98,9.59 -12.22,-13.64 -3.77,-24.73 25.35,-33.29 11,-0.86 16.84,-7.09 17.53,-18.7 1.93,-3.92 6.12,-6.35 12.56,-7.31 l 3.76,-15.96 c -5.76,7.08 -12.91,14.03 -25.66,17.8 l -9.56,14.16 c -12.42,-4.2 -15.54,9.11 -46.2,16.01 -11.38,0.29 -15.9,-1.85 -5.33,-9.37 l 14.86,-12.35 c 29,-7.56 45.52,-17.62 43.82,-31.3 l 37.48,-18.06 4.87,-7.44 c -5.24,3.33 -10.79,5.3 -17.01,4.28 -10.11,6.89 -18.16,10.93 -21.7,8.69 -3.95,4.4 -9.94,4.82 -16.86,3.43 l 5.94,7.98 c -13.02,16.26 -30.76,23.82 -52.42,24.17 l -8.83,-6.38 c -2.12,20.27 -9.44,17.91 -17.51,12.31 -18.87,8.22 -31.92,11.01 -32.18,1.83 -11.14,-7.97 -4.9,-17.99 13.23,-29.4 l -25.32,9.34 c -1.26,13.24 -6.74,12.82 -14.13,6.19 l -10.93,-1.58 c -10.537,22.99 -24.321,30.83 -40.326,28.29 -10.831,13.44 -22.413,14.57 -35.094,-2.28 l -10.468,4.53 -5.235,11.38 c 2.175,20.56 -8.165,22.39 -31.018,5.48 l -15.93,2.06 c 9.203,26.77 -1.904,31.39 -26.907,20.84 l -0.322,0.05 0.029,0.18 -0.185,0.14 0.204,-0.02 c 12.147,10.3 20.311,20.95 21.904,32.15 l -0.217,0.01 c -1.595,-9.18 -9.074,-18.03 -22.131,-31.6 l -46.054,6.16 c -13.173,16.07 -25.709,15.25 -37.607,-2.46 l -13.409,-0.95 -3.46,5.08 c 1.032,-2.46 1.704,-4.76 2.015,-6.89 -6.405,2.25 -10.458,0.02 -12.16,-6.68 l -7.023,-20.03 c -14.016,0.07 -13.304,-15.67 -6.836,-34.72 11.103,-17.78 35.486,0.31 21.222,-21.36 l 10.592,-23.42 c 0.244,-16.25 5.948,-22.64 17.113,-19.17 9.347,-6.63 8.945,-18.89 4.11,-33.71 4.969,-16.77 13.193,-26.61 28.576,-21.22 -3.853,-11.12 -0.38,-18.7 10.42,-22.75 -10.314,-17.77 -1.324,-30.71 16.441,-41.45 l -8.035,-49.116 c -9.453,8.776 -19.905,15.806 -32.301,19.426 8.589,-3.13 18.116,-9.03 29.099,-19.227 6.034,-23.947 13.069,-26.736 21.104,-8.367 17.631,18.784 26.542,42.864 22.708,74.714 l 0.676,0.15 c -4.051,7.96 -6.335,16.97 -6.335,26.51 0,32.31 26.194,58.51 58.506,58.51 31.12,0 56.565,-24.3 58.4,-54.96 z m 192.654,-170.34 -9.81,0.162 c -0.7,-1.973 -1.53,-4.091 -2.3,-6.344 l 12.11,6.182 z"
           style="fill:none;stroke:#000000;stroke-width:1.33000004px" /></g></g><circle
       style="fill:none;fill-rule:evenodd;stroke:#000000;stroke-width:4.1924572;stroke-linecap:butt;stroke-linejoin:miter;stroke-miterlimit:1.41420996;stroke-dasharray:none;stroke-opacity:1"
       id="iron-throne-slot6"
       cx="1582.4729"
       cy="139.08966"
       r="55.093513"
       inkscape:label="#path3869" /></g></svg>